%TF.GenerationSoftware,KiCad,Pcbnew,(6.0.0)*%
%TF.CreationDate,2022-08-27T02:03:40+01:00*%
%TF.ProjectId,AMSK6128r1,414d534b-3631-4323-9872-312e6b696361,rev?*%
%TF.SameCoordinates,Original*%
%TF.FileFunction,Copper,L2,Bot*%
%TF.FilePolarity,Positive*%
%FSLAX46Y46*%
G04 Gerber Fmt 4.6, Leading zero omitted, Abs format (unit mm)*
G04 Created by KiCad (PCBNEW (6.0.0)) date 2022-08-27 02:03:40*
%MOMM*%
%LPD*%
G01*
G04 APERTURE LIST*
%TA.AperFunction,ComponentPad*%
%ADD10R,1.600000X1.600000*%
%TD*%
%TA.AperFunction,ComponentPad*%
%ADD11O,1.600000X1.600000*%
%TD*%
%TA.AperFunction,ComponentPad*%
%ADD12C,1.600000*%
%TD*%
%TA.AperFunction,ComponentPad*%
%ADD13O,2.000000X3.500000*%
%TD*%
%TA.AperFunction,ComponentPad*%
%ADD14O,4.000000X2.000000*%
%TD*%
%TA.AperFunction,ViaPad*%
%ADD15C,0.800000*%
%TD*%
%TA.AperFunction,Conductor*%
%ADD16C,0.250000*%
%TD*%
G04 APERTURE END LIST*
D10*
%TO.P,U1,1,Q0*%
%TO.N,Net-(H2-Pad1)*%
X90160000Y-92446000D03*
D11*
%TO.P,U1,2,Q1*%
%TO.N,Net-(H2-Pad2)*%
X92700000Y-92446000D03*
%TO.P,U1,3,Q2*%
%TO.N,Net-(H2-Pad3)*%
X95240000Y-92446000D03*
%TO.P,U1,4,Q3*%
%TO.N,Net-(H2-Pad4)*%
X97780000Y-92446000D03*
%TO.P,U1,5,Q4*%
%TO.N,Net-(H2-Pad5)*%
X100320000Y-92446000D03*
%TO.P,U1,6,Q5*%
%TO.N,Net-(H2-Pad6)*%
X102860000Y-92446000D03*
%TO.P,U1,7,Q6*%
%TO.N,Net-(H2-Pad7)*%
X105400000Y-92446000D03*
%TO.P,U1,8,GND*%
%TO.N,Net-(H2-Pad8)*%
X107940000Y-92446000D03*
%TO.P,U1,9,Q7*%
%TO.N,Net-(H2-Pad9)*%
X107940000Y-84826000D03*
%TO.P,U1,10,Q8*%
%TO.N,Net-(H2-Pad10)*%
X105400000Y-84826000D03*
%TO.P,U1,11,Q9*%
%TO.N,Net-(H2-Pad11)*%
X102860000Y-84826000D03*
%TO.P,U1,12,P3*%
%TO.N,Net-(H2-Pad12)*%
X100320000Y-84826000D03*
%TO.P,U1,13,P2*%
%TO.N,Net-(H2-Pad13)*%
X97780000Y-84826000D03*
%TO.P,U1,14,P1*%
%TO.N,Net-(H2-Pad14)*%
X95240000Y-84826000D03*
%TO.P,U1,15,P0*%
%TO.N,Net-(H2-Pad15)*%
X92700000Y-84826000D03*
%TO.P,U1,16,VCC*%
%TO.N,Net-(H2-Pad16)*%
X90160000Y-84826000D03*
%TD*%
D10*
%TO.P,U4,1,Pin_1*%
%TO.N,unconnected-(U4-Pad1)*%
X124714000Y-73904000D03*
D11*
%TO.P,U4,2,Pin_2*%
%TO.N,unconnected-(U4-Pad2)*%
X127254000Y-73904000D03*
%TO.P,U4,3,Pin_3*%
%TO.N,unconnected-(U4-Pad3)*%
X129794000Y-73904000D03*
%TO.P,U4,4,Pin_4*%
%TO.N,Net-(H2-Pad8)*%
X132334000Y-73904000D03*
%TO.P,U4,5,Pin_5*%
%TO.N,Net-(U3-Pad38)*%
X134874000Y-73904000D03*
%TO.P,U4,6,Pin_6*%
%TO.N,Net-(J1-Pad5)*%
X137414000Y-73904000D03*
%TO.P,U4,7,Pin_7*%
%TO.N,Net-(U3-Pad18)*%
X139954000Y-73904000D03*
%TO.P,U4,8,Pin_8*%
%TO.N,Net-(U3-Pad2)*%
X142494000Y-73904000D03*
%TO.P,U4,9,Pin_9*%
%TO.N,Net-(U3-Pad25)*%
X145034000Y-73904000D03*
%TO.P,U4,10,Pin_10*%
%TO.N,Net-(U3-Pad24)*%
X147574000Y-73904000D03*
%TO.P,U4,11,Pin_11*%
%TO.N,Net-(U3-Pad23)*%
X150114000Y-73904000D03*
%TO.P,U4,12,Pin_12*%
%TO.N,Net-(U3-Pad22)*%
X152654000Y-73904000D03*
%TO.P,U4,13,Pin_13*%
%TO.N,Net-(U3-Pad5)*%
X155194000Y-73904000D03*
%TO.P,U4,14,Pin_14*%
%TO.N,Net-(U3-Pad4)*%
X157734000Y-73904000D03*
%TO.P,U4,15,Pin_15*%
%TO.N,Net-(J1-Pad1)*%
X160274000Y-73904000D03*
%TO.P,U4,16,Pin_16*%
%TO.N,Net-(U3-Pad3)*%
X160274000Y-58664000D03*
%TO.P,U4,17,Pin_17*%
%TO.N,unconnected-(U4-Pad17)*%
X157734000Y-58664000D03*
%TO.P,U4,18,Pin_18*%
%TO.N,unconnected-(U4-Pad18)*%
X155194000Y-58664000D03*
%TO.P,U4,19,Pin_19*%
%TO.N,unconnected-(U4-Pad19)*%
X152654000Y-58664000D03*
%TO.P,U4,20,Pin_20*%
%TO.N,unconnected-(U4-Pad20)*%
X150114000Y-58664000D03*
%TO.P,U4,21,Pin_21*%
%TO.N,unconnected-(U4-Pad21)*%
X147574000Y-58664000D03*
%TO.P,U4,22,Pin_22*%
%TO.N,unconnected-(U4-Pad22)*%
X145034000Y-58664000D03*
%TO.P,U4,23,Pin_23*%
%TO.N,unconnected-(U4-Pad23)*%
X142494000Y-58664000D03*
%TO.P,U4,24,Pin_24*%
%TO.N,unconnected-(U4-Pad24)*%
X139954000Y-58664000D03*
%TO.P,U4,25,Pin_25*%
%TO.N,unconnected-(U4-Pad25)*%
X137414000Y-58664000D03*
%TO.P,U4,26,Pin_26*%
%TO.N,unconnected-(U4-Pad26)*%
X134874000Y-58664000D03*
%TO.P,U4,27,Pin_27*%
%TO.N,Net-(H2-Pad16)*%
X132334000Y-58664000D03*
%TO.P,U4,28,Pin_28*%
%TO.N,unconnected-(U4-Pad28)*%
X129794000Y-58664000D03*
%TO.P,U4,29,Pin_29*%
%TO.N,Net-(H2-Pad8)*%
X127254000Y-58664000D03*
%TO.P,U4,30,Pin_30*%
%TO.N,unconnected-(U4-Pad30)*%
X124714000Y-58664000D03*
%TD*%
D10*
%TO.P,H2,1,Pin_1*%
%TO.N,Net-(H2-Pad1)*%
X87620000Y-90185000D03*
D11*
%TO.P,H2,2,Pin_2*%
%TO.N,Net-(H2-Pad2)*%
X90160000Y-90185000D03*
%TO.P,H2,3,Pin_3*%
%TO.N,Net-(H2-Pad3)*%
X92700000Y-90185000D03*
%TO.P,H2,4,Pin_4*%
%TO.N,Net-(H2-Pad4)*%
X95240000Y-90185000D03*
%TO.P,H2,5,Pin_5*%
%TO.N,Net-(H2-Pad5)*%
X97780000Y-90185000D03*
%TO.P,H2,6,Pin_6*%
%TO.N,Net-(H2-Pad6)*%
X100320000Y-90185000D03*
%TO.P,H2,7,Pin_7*%
%TO.N,Net-(H2-Pad7)*%
X102860000Y-90185000D03*
%TO.P,H2,8,Pin_8*%
%TO.N,Net-(H2-Pad8)*%
X105400000Y-90185000D03*
%TO.P,H2,9,Pin_9*%
%TO.N,Net-(H2-Pad9)*%
X105400000Y-82565000D03*
%TO.P,H2,10,Pin_10*%
%TO.N,Net-(H2-Pad10)*%
X102860000Y-82565000D03*
%TO.P,H2,11,Pin_11*%
%TO.N,Net-(H2-Pad11)*%
X100320000Y-82565000D03*
%TO.P,H2,12,Pin_12*%
%TO.N,Net-(H2-Pad12)*%
X97780000Y-82565000D03*
%TO.P,H2,13,Pin_13*%
%TO.N,Net-(H2-Pad13)*%
X95240000Y-82565000D03*
%TO.P,H2,14,Pin_14*%
%TO.N,Net-(H2-Pad14)*%
X92700000Y-82565000D03*
%TO.P,H2,15,Pin_15*%
%TO.N,Net-(H2-Pad15)*%
X90160000Y-82565000D03*
%TO.P,H2,16,Pin_16*%
%TO.N,Net-(H2-Pad16)*%
X87620000Y-82565000D03*
%TD*%
D10*
%TO.P,H1,1,Pin_1*%
%TO.N,Net-(H1-Pad1)*%
X71586000Y-50675000D03*
D11*
%TO.P,H1,2,Pin_2*%
%TO.N,Net-(H1-Pad2)*%
X74126000Y-50675000D03*
%TO.P,H1,3,Pin_3*%
%TO.N,Net-(H1-Pad3)*%
X76666000Y-50675000D03*
%TO.P,H1,4,Pin_4*%
%TO.N,Net-(H1-Pad4)*%
X79206000Y-50675000D03*
%TO.P,H1,5,Pin_5*%
%TO.N,Net-(H1-Pad5)*%
X81746000Y-50675000D03*
%TO.P,H1,6,Pin_6*%
%TO.N,Net-(H1-Pad6)*%
X84286000Y-50675000D03*
%TO.P,H1,7,Pin_7*%
%TO.N,Net-(H1-Pad7)*%
X86826000Y-50675000D03*
%TO.P,H1,8,Pin_8*%
%TO.N,Net-(H1-Pad8)*%
X89366000Y-50675000D03*
%TO.P,H1,9,Pin_9*%
%TO.N,Net-(H1-Pad9)*%
X91906000Y-50675000D03*
%TO.P,H1,10,Pin_10*%
%TO.N,Net-(H1-Pad10)*%
X94446000Y-50675000D03*
%TO.P,H1,11,Pin_11*%
%TO.N,Net-(H1-Pad11)*%
X96986000Y-50675000D03*
%TO.P,H1,12,Pin_12*%
%TO.N,Net-(H1-Pad12)*%
X99526000Y-50675000D03*
%TO.P,H1,13,Pin_13*%
%TO.N,Net-(H1-Pad13)*%
X102066000Y-50675000D03*
%TO.P,H1,14,Pin_14*%
%TO.N,Net-(H1-Pad14)*%
X104606000Y-50675000D03*
%TO.P,H1,15,Pin_15*%
%TO.N,Net-(H1-Pad15)*%
X104606000Y-35435000D03*
%TO.P,H1,16,Pin_16*%
%TO.N,Net-(H1-Pad16)*%
X102066000Y-35435000D03*
%TO.P,H1,17,Pin_17*%
%TO.N,Net-(H1-Pad17)*%
X99526000Y-35435000D03*
%TO.P,H1,18,Pin_18*%
%TO.N,Net-(H1-Pad18)*%
X96986000Y-35435000D03*
%TO.P,H1,19,Pin_19*%
%TO.N,Net-(H1-Pad19)*%
X94446000Y-35435000D03*
%TO.P,H1,20,Pin_20*%
%TO.N,Net-(H1-Pad20)*%
X91906000Y-35435000D03*
%TO.P,H1,21,Pin_21*%
%TO.N,Net-(H1-Pad21)*%
X89366000Y-35435000D03*
%TO.P,H1,22,Pin_22*%
%TO.N,Net-(H1-Pad22)*%
X86826000Y-35435000D03*
%TO.P,H1,23,Pin_23*%
%TO.N,Net-(H1-Pad23)*%
X84286000Y-35435000D03*
%TO.P,H1,24,Pin_24*%
%TO.N,Net-(H1-Pad24)*%
X81746000Y-35435000D03*
%TO.P,H1,25,Pin_25*%
%TO.N,Net-(H1-Pad25)*%
X79206000Y-35435000D03*
%TO.P,H1,26,Pin_26*%
%TO.N,Net-(H1-Pad26)*%
X76666000Y-35435000D03*
%TO.P,H1,27,Pin_27*%
%TO.N,Net-(H1-Pad27)*%
X74126000Y-35435000D03*
%TO.P,H1,28,Pin_28*%
%TO.N,Net-(H1-Pad28)*%
X71586000Y-35435000D03*
%TD*%
D10*
%TO.P,U2,1,Pin_1*%
%TO.N,Net-(H1-Pad1)*%
X74146000Y-53584000D03*
D11*
%TO.P,U2,2,Pin_2*%
%TO.N,Net-(H1-Pad2)*%
X76686000Y-53584000D03*
%TO.P,U2,3,Pin_3*%
%TO.N,Net-(H1-Pad3)*%
X79226000Y-53584000D03*
%TO.P,U2,4,Pin_4*%
%TO.N,Net-(H1-Pad4)*%
X81766000Y-53584000D03*
%TO.P,U2,5,Pin_5*%
%TO.N,Net-(H1-Pad5)*%
X84306000Y-53584000D03*
%TO.P,U2,6,Pin_6*%
%TO.N,Net-(H1-Pad6)*%
X86846000Y-53584000D03*
%TO.P,U2,7,Pin_7*%
%TO.N,Net-(H1-Pad7)*%
X89386000Y-53584000D03*
%TO.P,U2,8,Pin_8*%
%TO.N,Net-(H1-Pad8)*%
X91926000Y-53584000D03*
%TO.P,U2,9,Pin_9*%
%TO.N,Net-(H1-Pad9)*%
X94466000Y-53584000D03*
%TO.P,U2,10,Pin_10*%
%TO.N,Net-(H1-Pad10)*%
X97006000Y-53584000D03*
%TO.P,U2,11,Pin_11*%
%TO.N,Net-(H1-Pad11)*%
X99546000Y-53584000D03*
%TO.P,U2,12,Pin_12*%
%TO.N,Net-(H1-Pad12)*%
X102086000Y-53584000D03*
%TO.P,U2,13,Pin_13*%
%TO.N,Net-(H1-Pad13)*%
X104626000Y-53584000D03*
%TO.P,U2,14,Pin_14*%
%TO.N,Net-(H1-Pad14)*%
X107166000Y-53584000D03*
%TO.P,U2,15,Pin_15*%
%TO.N,Net-(H1-Pad15)*%
X107166000Y-38344000D03*
%TO.P,U2,16,Pin_16*%
%TO.N,Net-(H1-Pad16)*%
X104626000Y-38344000D03*
%TO.P,U2,17,Pin_17*%
%TO.N,Net-(H1-Pad17)*%
X102086000Y-38344000D03*
%TO.P,U2,18,Pin_18*%
%TO.N,Net-(H1-Pad18)*%
X99546000Y-38344000D03*
%TO.P,U2,19,Pin_19*%
%TO.N,Net-(H1-Pad19)*%
X97006000Y-38344000D03*
%TO.P,U2,20,Pin_20*%
%TO.N,Net-(H1-Pad20)*%
X94466000Y-38344000D03*
%TO.P,U2,21,Pin_21*%
%TO.N,Net-(H1-Pad21)*%
X91926000Y-38344000D03*
%TO.P,U2,22,Pin_22*%
%TO.N,Net-(H1-Pad22)*%
X89386000Y-38344000D03*
%TO.P,U2,23,Pin_23*%
%TO.N,Net-(H1-Pad23)*%
X86846000Y-38344000D03*
%TO.P,U2,24,Pin_24*%
%TO.N,Net-(H1-Pad24)*%
X84306000Y-38344000D03*
%TO.P,U2,25,Pin_25*%
%TO.N,Net-(H1-Pad25)*%
X81766000Y-38344000D03*
%TO.P,U2,26,Pin_26*%
%TO.N,Net-(H1-Pad26)*%
X79226000Y-38344000D03*
%TO.P,U2,27,Pin_27*%
%TO.N,Net-(H1-Pad27)*%
X76686000Y-38344000D03*
%TO.P,U2,28,Pin_28*%
%TO.N,Net-(H1-Pad28)*%
X74146000Y-38344000D03*
%TD*%
D10*
%TO.P,U3,1,Pin_1*%
%TO.N,Net-(H1-Pad11)*%
X165349000Y-77211000D03*
D11*
%TO.P,U3,2,Pin_2*%
%TO.N,Net-(U3-Pad2)*%
X162809000Y-77211000D03*
%TO.P,U3,3,Pin_3*%
%TO.N,Net-(U3-Pad3)*%
X160269000Y-77211000D03*
%TO.P,U3,4,Pin_4*%
%TO.N,Net-(U3-Pad4)*%
X157729000Y-77211000D03*
%TO.P,U3,5,Pin_5*%
%TO.N,Net-(U3-Pad5)*%
X155189000Y-77211000D03*
%TO.P,U3,6,Pin_6*%
%TO.N,unconnected-(U3-Pad6)*%
X152649000Y-77211000D03*
%TO.P,U3,7,Pin_7*%
%TO.N,unconnected-(U3-Pad7)*%
X150109000Y-77211000D03*
%TO.P,U3,8,Pin_8*%
%TO.N,Net-(H2-Pad4)*%
X147569000Y-77211000D03*
%TO.P,U3,9,Pin_9*%
%TO.N,Net-(H2-Pad3)*%
X145029000Y-77211000D03*
%TO.P,U3,10,Pin_10*%
%TO.N,Net-(H2-Pad2)*%
X142489000Y-77211000D03*
%TO.P,U3,11,Pin_11*%
%TO.N,Net-(H2-Pad1)*%
X139949000Y-77211000D03*
%TO.P,U3,12,Pin_12*%
%TO.N,unconnected-(U3-Pad12)*%
X137409000Y-77211000D03*
%TO.P,U3,13,Pin_13*%
%TO.N,unconnected-(U3-Pad13)*%
X134869000Y-77211000D03*
%TO.P,U3,14,Pin_14*%
%TO.N,unconnected-(U3-Pad14)*%
X132329000Y-77211000D03*
%TO.P,U3,15,Pin_15*%
%TO.N,Net-(H1-Pad7)*%
X129789000Y-77211000D03*
%TO.P,U3,16,Pin_16*%
%TO.N,Net-(H2-Pad8)*%
X127249000Y-77211000D03*
%TO.P,U3,17,Pin_17*%
%TO.N,Net-(H1-Pad8)*%
X124709000Y-77211000D03*
%TO.P,U3,18,Pin_18*%
%TO.N,Net-(U3-Pad18)*%
X122169000Y-77211000D03*
%TO.P,U3,19,Pin_19*%
%TO.N,Net-(H1-Pad9)*%
X119629000Y-77211000D03*
%TO.P,U3,20,Pin_20*%
%TO.N,Net-(H2-Pad8)*%
X117089000Y-77211000D03*
%TO.P,U3,21,Pin_21*%
%TO.N,Net-(H1-Pad10)*%
X117089000Y-92451000D03*
%TO.P,U3,22,Pin_22*%
%TO.N,Net-(U3-Pad22)*%
X119629000Y-92451000D03*
%TO.P,U3,23,Pin_23*%
%TO.N,Net-(U3-Pad23)*%
X122169000Y-92451000D03*
%TO.P,U3,24,Pin_24*%
%TO.N,Net-(U3-Pad24)*%
X124709000Y-92451000D03*
%TO.P,U3,25,Pin_25*%
%TO.N,Net-(U3-Pad25)*%
X127249000Y-92451000D03*
%TO.P,U3,26,Pin_26*%
%TO.N,unconnected-(U3-Pad26)*%
X129789000Y-92451000D03*
%TO.P,U3,27,Pin_27*%
%TO.N,unconnected-(U3-Pad27)*%
X132329000Y-92451000D03*
%TO.P,U3,28,Pin_28*%
%TO.N,Net-(H2-Pad5)*%
X134869000Y-92451000D03*
%TO.P,U3,29,Pin_29*%
%TO.N,Net-(H2-Pad6)*%
X137409000Y-92451000D03*
%TO.P,U3,30,Pin_30*%
%TO.N,Net-(H2-Pad7)*%
X139949000Y-92451000D03*
%TO.P,U3,31,Pin_31*%
%TO.N,Net-(H2-Pad9)*%
X142489000Y-92451000D03*
%TO.P,U3,32,Pin_32*%
%TO.N,Net-(H2-Pad10)*%
X145029000Y-92451000D03*
%TO.P,U3,33,Pin_33*%
%TO.N,Net-(H2-Pad11)*%
X147569000Y-92451000D03*
%TO.P,U3,34,Pin_34*%
%TO.N,unconnected-(U3-Pad34)*%
X150109000Y-92451000D03*
%TO.P,U3,35,Pin_35*%
%TO.N,Net-(H1-Pad14)*%
X152649000Y-92451000D03*
%TO.P,U3,36,Pin_36*%
%TO.N,Net-(H2-Pad16)*%
X155189000Y-92451000D03*
%TO.P,U3,37,Pin_37*%
%TO.N,Net-(H1-Pad13)*%
X157729000Y-92451000D03*
%TO.P,U3,38,Pin_38*%
%TO.N,Net-(U3-Pad38)*%
X160269000Y-92451000D03*
%TO.P,U3,39,Pin_39*%
%TO.N,Net-(H1-Pad12)*%
X162809000Y-92451000D03*
%TO.P,U3,40,Pin_40*%
%TO.N,Net-(H2-Pad16)*%
X165349000Y-92451000D03*
%TD*%
D10*
%TO.P,J1,1*%
%TO.N,Net-(J1-Pad1)*%
X177292000Y-88900000D03*
D12*
%TO.P,J1,2*%
%TO.N,unconnected-(J1-Pad2)*%
X174692000Y-88900000D03*
%TO.P,J1,3*%
%TO.N,Net-(H2-Pad8)*%
X179392000Y-88900000D03*
%TO.P,J1,4*%
%TO.N,Net-(H2-Pad16)*%
X172592000Y-88900000D03*
%TO.P,J1,5*%
%TO.N,Net-(J1-Pad5)*%
X179392000Y-91700000D03*
%TO.P,J1,6*%
%TO.N,unconnected-(J1-Pad6)*%
X172592000Y-91700000D03*
D13*
%TO.P,J1,7*%
%TO.N,N/C*%
X169142000Y-86050000D03*
X182842000Y-86050000D03*
D14*
X175992000Y-85250000D03*
%TD*%
D15*
%TO.N,Net-(H1-Pad13)*%
X127080600Y-82005100D03*
%TO.N,Net-(H1-Pad14)*%
X128062000Y-82563800D03*
%TO.N,Net-(H2-Pad4)*%
X136553000Y-87919200D03*
%TD*%
D16*
%TO.N,Net-(H1-Pad1)*%
X71586000Y-50675000D02*
X72711300Y-50675000D01*
X72711300Y-51024000D02*
X72711300Y-50675000D01*
X74146000Y-52458700D02*
X72711300Y-51024000D01*
X74146000Y-53584000D02*
X74146000Y-52458700D01*
%TO.N,Net-(H1-Pad2)*%
X76686000Y-52458700D02*
X75251300Y-51024000D01*
X75251300Y-51024000D02*
X75251300Y-50675000D01*
X76686000Y-53584000D02*
X76686000Y-52458700D01*
X74126000Y-50675000D02*
X75251300Y-50675000D01*
%TO.N,Net-(H1-Pad3)*%
X76666000Y-50675000D02*
X77791300Y-50675000D01*
X79226000Y-52458700D02*
X77791300Y-51024000D01*
X79226000Y-53584000D02*
X79226000Y-52458700D01*
X77791300Y-51024000D02*
X77791300Y-50675000D01*
%TO.N,Net-(H1-Pad4)*%
X81766000Y-53584000D02*
X81766000Y-52458700D01*
X79206000Y-50675000D02*
X80331300Y-50675000D01*
X80331300Y-51024000D02*
X80331300Y-50675000D01*
X81766000Y-52458700D02*
X80331300Y-51024000D01*
%TO.N,Net-(H1-Pad5)*%
X81746000Y-50675000D02*
X82871300Y-50675000D01*
X84306000Y-52458700D02*
X82871300Y-51024000D01*
X82871300Y-51024000D02*
X82871300Y-50675000D01*
X84306000Y-53584000D02*
X84306000Y-52458700D01*
%TO.N,Net-(H1-Pad15)*%
X107166000Y-38344000D02*
X107166000Y-37218700D01*
X104606000Y-35435000D02*
X105731300Y-35435000D01*
X105731300Y-35784000D02*
X105731300Y-35435000D01*
X107166000Y-37218700D02*
X105731300Y-35784000D01*
%TO.N,Net-(H1-Pad6)*%
X84286000Y-50675000D02*
X85411300Y-50675000D01*
X85411300Y-51024000D02*
X85411300Y-50675000D01*
X86846000Y-53584000D02*
X86846000Y-52458700D01*
X86846000Y-52458700D02*
X85411300Y-51024000D01*
%TO.N,Net-(H1-Pad16)*%
X104626000Y-38344000D02*
X104626000Y-37218700D01*
X103191300Y-35784000D02*
X103191300Y-35435000D01*
X104626000Y-37218700D02*
X103191300Y-35784000D01*
X102066000Y-35435000D02*
X103191300Y-35435000D01*
%TO.N,Net-(H1-Pad7)*%
X109267800Y-58457800D02*
X111341900Y-58457800D01*
X91369500Y-52444500D02*
X105104900Y-52444500D01*
X111341900Y-58457800D02*
X125839400Y-72955300D01*
X129789000Y-77211000D02*
X128663700Y-77211000D01*
X105896000Y-55086000D02*
X109267800Y-58457800D01*
X105104900Y-52444500D02*
X105896000Y-53235600D01*
X89386000Y-53584000D02*
X90511300Y-53584000D01*
X128663700Y-76958200D02*
X128663700Y-77211000D01*
X125839400Y-74133900D02*
X128663700Y-76958200D01*
X90511300Y-53302700D02*
X91369500Y-52444500D01*
X125839400Y-72955300D02*
X125839400Y-74133900D01*
X90511300Y-53584000D02*
X90511300Y-53302700D01*
X105896000Y-53235600D02*
X105896000Y-55086000D01*
%TO.N,Net-(H1-Pad17)*%
X100651300Y-35784000D02*
X100651300Y-35435000D01*
X102086000Y-38344000D02*
X102086000Y-37218700D01*
X99526000Y-35435000D02*
X100651300Y-35435000D01*
X102086000Y-37218700D02*
X100651300Y-35784000D01*
%TO.N,Net-(H1-Pad9)*%
X106005000Y-64279000D02*
X113815000Y-64279000D01*
X95591300Y-53865300D02*
X106005000Y-64279000D01*
X95591300Y-53584000D02*
X95591300Y-53865300D01*
X94466000Y-53584000D02*
X95591300Y-53584000D01*
X119629000Y-70093000D02*
X119629000Y-76085700D01*
X113815000Y-64279000D02*
X119629000Y-70093000D01*
X119629000Y-77211000D02*
X119629000Y-76085700D01*
%TO.N,Net-(H1-Pad19)*%
X94446000Y-35435000D02*
X95571300Y-35435000D01*
X95571300Y-35784000D02*
X95571300Y-35435000D01*
X97006000Y-38344000D02*
X97006000Y-37218700D01*
X97006000Y-37218700D02*
X95571300Y-35784000D01*
%TO.N,Net-(H1-Pad10)*%
X97006000Y-53584000D02*
X98131300Y-53584000D01*
X117089000Y-92451000D02*
X117089000Y-91325700D01*
X117089000Y-91325700D02*
X120768400Y-87646300D01*
X107177600Y-62911600D02*
X98131300Y-53865300D01*
X120768400Y-70595500D02*
X113084500Y-62911600D01*
X98131300Y-53865300D02*
X98131300Y-53584000D01*
X120768400Y-87646300D02*
X120768400Y-70595500D01*
X113084500Y-62911600D02*
X107177600Y-62911600D01*
%TO.N,Net-(H1-Pad20)*%
X94466000Y-38344000D02*
X94466000Y-37218700D01*
X93031300Y-35784000D02*
X93031300Y-35435000D01*
X91906000Y-35435000D02*
X93031300Y-35435000D01*
X94466000Y-37218700D02*
X93031300Y-35784000D01*
%TO.N,Net-(H1-Pad21)*%
X90491300Y-35784000D02*
X90491300Y-35435000D01*
X91926000Y-37218700D02*
X90491300Y-35784000D01*
X89366000Y-35435000D02*
X90491300Y-35435000D01*
X91926000Y-38344000D02*
X91926000Y-37218700D01*
%TO.N,Net-(H1-Pad12)*%
X109099900Y-57016100D02*
X108747300Y-56663500D01*
X154143000Y-71910500D02*
X141224000Y-58991500D01*
X162809000Y-92451000D02*
X162809000Y-91325700D01*
X162809000Y-91325700D02*
X156464000Y-84980700D01*
X141224000Y-58991500D02*
X141224000Y-58316400D01*
X101495200Y-51800300D02*
X100651300Y-50956400D01*
X100651300Y-50956400D02*
X100651300Y-50675000D01*
X139923700Y-57016100D02*
X109099900Y-57016100D01*
X107003400Y-51800300D02*
X101495200Y-51800300D01*
X108747300Y-56663500D02*
X108747300Y-53544200D01*
X156464000Y-73542300D02*
X154832200Y-71910500D01*
X108747300Y-53544200D02*
X107003400Y-51800300D01*
X99526000Y-50675000D02*
X100651300Y-50675000D01*
X156464000Y-84980700D02*
X156464000Y-73542300D01*
X141224000Y-58316400D02*
X139923700Y-57016100D01*
X154832200Y-71910500D02*
X154143000Y-71910500D01*
%TO.N,Net-(H1-Pad22)*%
X87951300Y-35784000D02*
X87951300Y-35435000D01*
X86826000Y-35435000D02*
X87951300Y-35435000D01*
X89386000Y-37218700D02*
X87951300Y-35784000D01*
X89386000Y-38344000D02*
X89386000Y-37218700D01*
%TO.N,Net-(H1-Pad13)*%
X109717900Y-58908100D02*
X123489100Y-72679300D01*
X104626000Y-53584000D02*
X104626000Y-54709300D01*
X123489100Y-78413600D02*
X127080600Y-82005100D01*
X108824800Y-58908100D02*
X109717900Y-58908100D01*
X123489100Y-72679300D02*
X123489100Y-78413600D01*
X104626000Y-54709300D02*
X108824800Y-58908100D01*
%TO.N,Net-(H1-Pad14)*%
X107166000Y-54709300D02*
X107166000Y-55719100D01*
X128524000Y-73558800D02*
X128524000Y-74346300D01*
X128524000Y-74346300D02*
X130914400Y-76736700D01*
X130914400Y-76736700D02*
X130914400Y-79711400D01*
X109371400Y-57924500D02*
X112889700Y-57924500D01*
X107166000Y-55719100D02*
X109371400Y-57924500D01*
X112889700Y-57924500D02*
X128524000Y-73558800D01*
X130914400Y-79711400D02*
X128062000Y-82563800D01*
X107166000Y-53584000D02*
X107166000Y-54709300D01*
%TO.N,Net-(H1-Pad23)*%
X85411300Y-35784000D02*
X85411300Y-35435000D01*
X86846000Y-37218700D02*
X85411300Y-35784000D01*
X84286000Y-35435000D02*
X85411300Y-35435000D01*
X86846000Y-38344000D02*
X86846000Y-37218700D01*
%TO.N,Net-(H1-Pad24)*%
X81746000Y-35435000D02*
X82871300Y-35435000D01*
X84306000Y-37218700D02*
X82871300Y-35784000D01*
X84306000Y-38344000D02*
X84306000Y-37218700D01*
X82871300Y-35784000D02*
X82871300Y-35435000D01*
%TO.N,Net-(H2-Pad1)*%
X90160000Y-92446000D02*
X90160000Y-91320700D01*
X89669400Y-91320700D02*
X90160000Y-91320700D01*
X88745300Y-90185000D02*
X88745300Y-90396600D01*
X88745300Y-90396600D02*
X89669400Y-91320700D01*
X87620000Y-90185000D02*
X88745300Y-90185000D01*
%TO.N,Net-(H2-Pad2)*%
X146208600Y-76730900D02*
X146208600Y-77703400D01*
X146208600Y-77703400D02*
X136718100Y-87193900D01*
X92700000Y-92446000D02*
X92700000Y-91320700D01*
X92700000Y-92446000D02*
X93825300Y-92446000D01*
X136718100Y-87193900D02*
X135928200Y-87193900D01*
X131059000Y-92063100D02*
X131059000Y-92819800D01*
X143646400Y-76053600D02*
X145531300Y-76053600D01*
X95177900Y-94079900D02*
X93825300Y-92727300D01*
X93825300Y-92727300D02*
X93825300Y-92446000D01*
X131059000Y-92819800D02*
X129798900Y-94079900D01*
X135928200Y-87193900D02*
X131059000Y-92063100D01*
X142489000Y-77211000D02*
X143646400Y-76053600D01*
X92209400Y-91320700D02*
X92700000Y-91320700D01*
X91285300Y-90185000D02*
X91285300Y-90396600D01*
X90160000Y-90185000D02*
X91285300Y-90185000D01*
X145531300Y-76053600D02*
X146208600Y-76730900D01*
X129798900Y-94079900D02*
X95177900Y-94079900D01*
X91285300Y-90396600D02*
X92209400Y-91320700D01*
%TO.N,Net-(H2-Pad3)*%
X128519000Y-92810900D02*
X127751600Y-93578300D01*
X96372300Y-93578300D02*
X95240000Y-92446000D01*
X128519000Y-92123100D02*
X128519000Y-92810900D01*
X127751600Y-93578300D02*
X96372300Y-93578300D01*
X145029000Y-77211000D02*
X143903700Y-77211000D01*
X143059800Y-78336300D02*
X142305800Y-78336300D01*
X142305800Y-78336300D02*
X128519000Y-92123100D01*
X143903700Y-77211000D02*
X143903700Y-77492400D01*
X143903700Y-77492400D02*
X143059800Y-78336300D01*
%TO.N,Net-(H2-Pad4)*%
X147569000Y-77211000D02*
X136860800Y-87919200D01*
X96654700Y-92234400D02*
X95730600Y-91310300D01*
X97780000Y-92446000D02*
X96654700Y-92446000D01*
X95240000Y-90185000D02*
X95240000Y-91310300D01*
X95730600Y-91310300D02*
X95240000Y-91310300D01*
X136860800Y-87919200D02*
X136553000Y-87919200D01*
X96654700Y-92446000D02*
X96654700Y-92234400D01*
%TO.N,Net-(H2-Pad5)*%
X100320000Y-92446000D02*
X99194700Y-92446000D01*
X97780000Y-90185000D02*
X97780000Y-91310300D01*
X98270600Y-91310300D02*
X97780000Y-91310300D01*
X99194700Y-92234400D02*
X98270600Y-91310300D01*
X99194700Y-92446000D02*
X99194700Y-92234400D01*
%TO.N,Net-(H2-Pad6)*%
X102369400Y-91320700D02*
X102860000Y-91320700D01*
X101445300Y-90185000D02*
X101445300Y-90396600D01*
X100320000Y-90185000D02*
X101445300Y-90185000D01*
X102860000Y-92446000D02*
X102860000Y-91320700D01*
X101445300Y-90396600D02*
X102369400Y-91320700D01*
%TO.N,Net-(H2-Pad7)*%
X103985300Y-90185000D02*
X103985300Y-90396600D01*
X103985300Y-90396600D02*
X104909400Y-91320700D01*
X104909400Y-91320700D02*
X105400000Y-91320700D01*
X105400000Y-92446000D02*
X105400000Y-91320700D01*
X102860000Y-90185000D02*
X103985300Y-90185000D01*
%TO.N,Net-(H2-Pad8)*%
X105400000Y-90185000D02*
X105400000Y-89622300D01*
X105400000Y-89622300D02*
X106334000Y-88688300D01*
X106736900Y-88688300D02*
X106737000Y-88688300D01*
X132334000Y-72778700D02*
X127254000Y-67698700D01*
X132334000Y-73904000D02*
X132334000Y-72778700D01*
X107940000Y-89891400D02*
X107940000Y-92446000D01*
X106737000Y-88688300D02*
X107940000Y-89891400D01*
X117089000Y-78336300D02*
X106737000Y-88688300D01*
X106334000Y-88688300D02*
X106736900Y-88688300D01*
X127254000Y-67698700D02*
X127254000Y-58664000D01*
X117089000Y-77211000D02*
X117089000Y-78336300D01*
%TO.N,Net-(H2-Pad9)*%
X107661000Y-83700700D02*
X107940000Y-83700700D01*
X107940000Y-84826000D02*
X107940000Y-83700700D01*
X106525300Y-82565000D02*
X107661000Y-83700700D01*
X105400000Y-82565000D02*
X106525300Y-82565000D01*
%TO.N,Net-(H2-Pad10)*%
X103985300Y-82565000D02*
X103985300Y-82776600D01*
X105400000Y-84826000D02*
X105400000Y-83700700D01*
X103985300Y-82776600D02*
X104909400Y-83700700D01*
X102860000Y-82565000D02*
X103985300Y-82565000D01*
X104909400Y-83700700D02*
X105400000Y-83700700D01*
%TO.N,Net-(H2-Pad11)*%
X101445300Y-82776600D02*
X102369400Y-83700700D01*
X101445300Y-82565000D02*
X101445300Y-82776600D01*
X102369400Y-83700700D02*
X102860000Y-83700700D01*
X102860000Y-84826000D02*
X102860000Y-83700700D01*
X100320000Y-82565000D02*
X101445300Y-82565000D01*
%TO.N,Net-(H2-Pad12)*%
X98905300Y-82776600D02*
X99829400Y-83700700D01*
X99829400Y-83700700D02*
X100320000Y-83700700D01*
X98905300Y-82565000D02*
X98905300Y-82776600D01*
X97780000Y-82565000D02*
X98905300Y-82565000D01*
X100320000Y-84826000D02*
X100320000Y-83700700D01*
%TO.N,Net-(H2-Pad13)*%
X97289400Y-83700700D02*
X97780000Y-83700700D01*
X96365300Y-82565000D02*
X96365300Y-82776600D01*
X96365300Y-82776600D02*
X97289400Y-83700700D01*
X95240000Y-82565000D02*
X96365300Y-82565000D01*
X97780000Y-84826000D02*
X97780000Y-83700700D01*
%TO.N,Net-(H2-Pad14)*%
X93825300Y-82776600D02*
X94749400Y-83700700D01*
X94749400Y-83700700D02*
X95240000Y-83700700D01*
X95240000Y-84826000D02*
X95240000Y-83700700D01*
X93825300Y-82565000D02*
X93825300Y-82776600D01*
X92700000Y-82565000D02*
X93825300Y-82565000D01*
%TO.N,Net-(H2-Pad15)*%
X92209400Y-83700700D02*
X92700000Y-83700700D01*
X92700000Y-84826000D02*
X92700000Y-83700700D01*
X91285300Y-82776600D02*
X92209400Y-83700700D01*
X90160000Y-82565000D02*
X91285300Y-82565000D01*
X91285300Y-82565000D02*
X91285300Y-82776600D01*
%TO.N,Net-(H2-Pad16)*%
X89034700Y-84826000D02*
X87899000Y-83690300D01*
X132334000Y-58664000D02*
X133459300Y-58664000D01*
X154063700Y-90200400D02*
X155189000Y-91325700D01*
X87620000Y-82565000D02*
X87620000Y-83690300D01*
X169041000Y-92451000D02*
X172592000Y-88900000D01*
X133459300Y-58945400D02*
X134303200Y-59789300D01*
X90160000Y-84826000D02*
X89034700Y-84826000D01*
X87899000Y-83690300D02*
X87620000Y-83690300D01*
X164223700Y-92451000D02*
X164223700Y-92732400D01*
X157158200Y-93576300D02*
X156314300Y-92732400D01*
X164223700Y-92732400D02*
X163379800Y-93576300D01*
X155189000Y-92451000D02*
X155189000Y-91325700D01*
X134303200Y-59789300D02*
X140134200Y-59789300D01*
X165349000Y-92451000D02*
X164223700Y-92451000D01*
X154063700Y-73718800D02*
X154063700Y-90200400D01*
X140134200Y-59789300D02*
X154063700Y-73718800D01*
X165349000Y-92451000D02*
X169041000Y-92451000D01*
X155189000Y-92451000D02*
X156314300Y-92451000D01*
X133459300Y-58664000D02*
X133459300Y-58945400D01*
X163379800Y-93576300D02*
X157158200Y-93576300D01*
X156314300Y-92732400D02*
X156314300Y-92451000D01*
%TO.N,Net-(J1-Pad1)*%
X161278200Y-79837400D02*
X167221000Y-79837400D01*
X160274000Y-73904000D02*
X160274000Y-75029300D01*
X167221000Y-79837400D02*
X176166700Y-88783100D01*
X159107500Y-77666700D02*
X161278200Y-79837400D01*
X177292000Y-88900000D02*
X176166700Y-88900000D01*
X159107500Y-76195800D02*
X159107500Y-77666700D01*
X160274000Y-75029300D02*
X159107500Y-76195800D01*
X176166700Y-88783100D02*
X176166700Y-88900000D01*
%TO.N,Net-(U3-Pad22)*%
X149735700Y-71829700D02*
X151528700Y-73622700D01*
X152654000Y-73904000D02*
X151528700Y-73904000D01*
X151528700Y-73622700D02*
X151528700Y-73904000D01*
X133530100Y-78127900D02*
X133530100Y-73620000D01*
X133530100Y-73620000D02*
X135320400Y-71829700D01*
X120332300Y-91325700D02*
X133530100Y-78127900D01*
X119629000Y-92451000D02*
X119629000Y-91325700D01*
X119629000Y-91325700D02*
X120332300Y-91325700D01*
X135320400Y-71829700D02*
X149735700Y-71829700D01*
%TO.N,Net-(U3-Pad3)*%
X161399300Y-74955400D02*
X161399300Y-60914600D01*
X160269000Y-77211000D02*
X160269000Y-76085700D01*
X161399300Y-60914600D02*
X160274000Y-59789300D01*
X160274000Y-58664000D02*
X160274000Y-59789300D01*
X160269000Y-76085700D02*
X161399300Y-74955400D01*
%TO.N,Net-(U3-Pad23)*%
X136153400Y-73567400D02*
X137430000Y-72290800D01*
X136153400Y-77622600D02*
X136153400Y-73567400D01*
X148988700Y-73622700D02*
X148988700Y-73904000D01*
X147656800Y-72290800D02*
X148988700Y-73622700D01*
X122169000Y-92451000D02*
X122169000Y-91325700D01*
X150114000Y-73904000D02*
X148988700Y-73904000D01*
X122450300Y-91325700D02*
X136153400Y-77622600D01*
X137430000Y-72290800D02*
X147656800Y-72290800D01*
X122169000Y-91325700D02*
X122450300Y-91325700D01*
%TO.N,Net-(U3-Pad4)*%
X157729000Y-75034300D02*
X157734000Y-75029300D01*
X157729000Y-77211000D02*
X157729000Y-75034300D01*
X157734000Y-73904000D02*
X157734000Y-75029300D01*
%TO.N,Net-(U3-Pad24)*%
X138679000Y-77637000D02*
X138679000Y-76889500D01*
X141224000Y-73561500D02*
X142006800Y-72778700D01*
X146448700Y-73622600D02*
X146448700Y-73904000D01*
X147574000Y-73904000D02*
X146448700Y-73904000D01*
X145604800Y-72778700D02*
X146448700Y-73622600D01*
X124709000Y-92451000D02*
X124709000Y-91325700D01*
X141224000Y-74344500D02*
X141224000Y-73561500D01*
X138679000Y-76889500D02*
X141224000Y-74344500D01*
X124990300Y-91325700D02*
X138679000Y-77637000D01*
X124709000Y-91325700D02*
X124990300Y-91325700D01*
X142006800Y-72778700D02*
X145604800Y-72778700D01*
%TO.N,Net-(U3-Pad5)*%
X155189000Y-77211000D02*
X155189000Y-76085700D01*
X155194000Y-76080700D02*
X155194000Y-73904000D01*
X155189000Y-76085700D02*
X155194000Y-76080700D01*
%TO.N,Net-(U3-Pad25)*%
X127249000Y-92451000D02*
X127249000Y-91325700D01*
X141219000Y-76845000D02*
X143908700Y-74155300D01*
X127249000Y-91325700D02*
X127530300Y-91325700D01*
X145034000Y-73904000D02*
X143908700Y-73904000D01*
X141219000Y-77637000D02*
X141219000Y-76845000D01*
X143908700Y-74155300D02*
X143908700Y-73904000D01*
X127530300Y-91325700D02*
X141219000Y-77637000D01*
%TO.N,Net-(H1-Pad25)*%
X80331300Y-35784000D02*
X80331300Y-35435000D01*
X79206000Y-35435000D02*
X80331300Y-35435000D01*
X81766000Y-38344000D02*
X81766000Y-37218700D01*
X81766000Y-37218700D02*
X80331300Y-35784000D01*
%TO.N,Net-(H1-Pad26)*%
X79226000Y-38344000D02*
X79226000Y-37218700D01*
X77791300Y-35784000D02*
X77791300Y-35435000D01*
X76666000Y-35435000D02*
X77791300Y-35435000D01*
X79226000Y-37218700D02*
X77791300Y-35784000D01*
%TO.N,Net-(H1-Pad27)*%
X75251300Y-35784000D02*
X75251300Y-35435000D01*
X74126000Y-35435000D02*
X75251300Y-35435000D01*
X76686000Y-37218700D02*
X75251300Y-35784000D01*
X76686000Y-38344000D02*
X76686000Y-37218700D01*
%TO.N,Net-(H1-Pad28)*%
X72711300Y-35784000D02*
X72711300Y-35435000D01*
X74146000Y-38344000D02*
X74146000Y-37218700D01*
X74146000Y-37218700D02*
X72711300Y-35784000D01*
X71586000Y-35435000D02*
X72711300Y-35435000D01*
%TD*%
M02*
