%TF.GenerationSoftware,KiCad,Pcbnew,(6.0.0)*%
%TF.CreationDate,2022-08-27T02:03:39+01:00*%
%TF.ProjectId,AMSK6128r1,414d534b-3631-4323-9872-312e6b696361,rev?*%
%TF.SameCoordinates,Original*%
%TF.FileFunction,Copper,L1,Top*%
%TF.FilePolarity,Positive*%
%FSLAX46Y46*%
G04 Gerber Fmt 4.6, Leading zero omitted, Abs format (unit mm)*
G04 Created by KiCad (PCBNEW (6.0.0)) date 2022-08-27 02:03:39*
%MOMM*%
%LPD*%
G01*
G04 APERTURE LIST*
%TA.AperFunction,ComponentPad*%
%ADD10R,1.600000X1.600000*%
%TD*%
%TA.AperFunction,ComponentPad*%
%ADD11O,1.600000X1.600000*%
%TD*%
%TA.AperFunction,ComponentPad*%
%ADD12C,1.600000*%
%TD*%
%TA.AperFunction,ComponentPad*%
%ADD13O,2.000000X3.500000*%
%TD*%
%TA.AperFunction,ComponentPad*%
%ADD14O,4.000000X2.000000*%
%TD*%
%TA.AperFunction,ViaPad*%
%ADD15C,0.800000*%
%TD*%
%TA.AperFunction,Conductor*%
%ADD16C,0.250000*%
%TD*%
G04 APERTURE END LIST*
D10*
%TO.P,U1,1,Q0*%
%TO.N,Net-(H2-Pad1)*%
X90160000Y-92446000D03*
D11*
%TO.P,U1,2,Q1*%
%TO.N,Net-(H2-Pad2)*%
X92700000Y-92446000D03*
%TO.P,U1,3,Q2*%
%TO.N,Net-(H2-Pad3)*%
X95240000Y-92446000D03*
%TO.P,U1,4,Q3*%
%TO.N,Net-(H2-Pad4)*%
X97780000Y-92446000D03*
%TO.P,U1,5,Q4*%
%TO.N,Net-(H2-Pad5)*%
X100320000Y-92446000D03*
%TO.P,U1,6,Q5*%
%TO.N,Net-(H2-Pad6)*%
X102860000Y-92446000D03*
%TO.P,U1,7,Q6*%
%TO.N,Net-(H2-Pad7)*%
X105400000Y-92446000D03*
%TO.P,U1,8,GND*%
%TO.N,Net-(H2-Pad8)*%
X107940000Y-92446000D03*
%TO.P,U1,9,Q7*%
%TO.N,Net-(H2-Pad9)*%
X107940000Y-84826000D03*
%TO.P,U1,10,Q8*%
%TO.N,Net-(H2-Pad10)*%
X105400000Y-84826000D03*
%TO.P,U1,11,Q9*%
%TO.N,Net-(H2-Pad11)*%
X102860000Y-84826000D03*
%TO.P,U1,12,P3*%
%TO.N,Net-(H2-Pad12)*%
X100320000Y-84826000D03*
%TO.P,U1,13,P2*%
%TO.N,Net-(H2-Pad13)*%
X97780000Y-84826000D03*
%TO.P,U1,14,P1*%
%TO.N,Net-(H2-Pad14)*%
X95240000Y-84826000D03*
%TO.P,U1,15,P0*%
%TO.N,Net-(H2-Pad15)*%
X92700000Y-84826000D03*
%TO.P,U1,16,VCC*%
%TO.N,Net-(H2-Pad16)*%
X90160000Y-84826000D03*
%TD*%
D10*
%TO.P,U4,1,Pin_1*%
%TO.N,unconnected-(U4-Pad1)*%
X124714000Y-73904000D03*
D11*
%TO.P,U4,2,Pin_2*%
%TO.N,unconnected-(U4-Pad2)*%
X127254000Y-73904000D03*
%TO.P,U4,3,Pin_3*%
%TO.N,unconnected-(U4-Pad3)*%
X129794000Y-73904000D03*
%TO.P,U4,4,Pin_4*%
%TO.N,Net-(H2-Pad8)*%
X132334000Y-73904000D03*
%TO.P,U4,5,Pin_5*%
%TO.N,Net-(U3-Pad38)*%
X134874000Y-73904000D03*
%TO.P,U4,6,Pin_6*%
%TO.N,Net-(J1-Pad5)*%
X137414000Y-73904000D03*
%TO.P,U4,7,Pin_7*%
%TO.N,Net-(U3-Pad18)*%
X139954000Y-73904000D03*
%TO.P,U4,8,Pin_8*%
%TO.N,Net-(U3-Pad2)*%
X142494000Y-73904000D03*
%TO.P,U4,9,Pin_9*%
%TO.N,Net-(U3-Pad25)*%
X145034000Y-73904000D03*
%TO.P,U4,10,Pin_10*%
%TO.N,Net-(U3-Pad24)*%
X147574000Y-73904000D03*
%TO.P,U4,11,Pin_11*%
%TO.N,Net-(U3-Pad23)*%
X150114000Y-73904000D03*
%TO.P,U4,12,Pin_12*%
%TO.N,Net-(U3-Pad22)*%
X152654000Y-73904000D03*
%TO.P,U4,13,Pin_13*%
%TO.N,Net-(U3-Pad5)*%
X155194000Y-73904000D03*
%TO.P,U4,14,Pin_14*%
%TO.N,Net-(U3-Pad4)*%
X157734000Y-73904000D03*
%TO.P,U4,15,Pin_15*%
%TO.N,Net-(J1-Pad1)*%
X160274000Y-73904000D03*
%TO.P,U4,16,Pin_16*%
%TO.N,Net-(U3-Pad3)*%
X160274000Y-58664000D03*
%TO.P,U4,17,Pin_17*%
%TO.N,unconnected-(U4-Pad17)*%
X157734000Y-58664000D03*
%TO.P,U4,18,Pin_18*%
%TO.N,unconnected-(U4-Pad18)*%
X155194000Y-58664000D03*
%TO.P,U4,19,Pin_19*%
%TO.N,unconnected-(U4-Pad19)*%
X152654000Y-58664000D03*
%TO.P,U4,20,Pin_20*%
%TO.N,unconnected-(U4-Pad20)*%
X150114000Y-58664000D03*
%TO.P,U4,21,Pin_21*%
%TO.N,unconnected-(U4-Pad21)*%
X147574000Y-58664000D03*
%TO.P,U4,22,Pin_22*%
%TO.N,unconnected-(U4-Pad22)*%
X145034000Y-58664000D03*
%TO.P,U4,23,Pin_23*%
%TO.N,unconnected-(U4-Pad23)*%
X142494000Y-58664000D03*
%TO.P,U4,24,Pin_24*%
%TO.N,unconnected-(U4-Pad24)*%
X139954000Y-58664000D03*
%TO.P,U4,25,Pin_25*%
%TO.N,unconnected-(U4-Pad25)*%
X137414000Y-58664000D03*
%TO.P,U4,26,Pin_26*%
%TO.N,unconnected-(U4-Pad26)*%
X134874000Y-58664000D03*
%TO.P,U4,27,Pin_27*%
%TO.N,Net-(H2-Pad16)*%
X132334000Y-58664000D03*
%TO.P,U4,28,Pin_28*%
%TO.N,unconnected-(U4-Pad28)*%
X129794000Y-58664000D03*
%TO.P,U4,29,Pin_29*%
%TO.N,Net-(H2-Pad8)*%
X127254000Y-58664000D03*
%TO.P,U4,30,Pin_30*%
%TO.N,unconnected-(U4-Pad30)*%
X124714000Y-58664000D03*
%TD*%
D10*
%TO.P,H2,1,Pin_1*%
%TO.N,Net-(H2-Pad1)*%
X87620000Y-90185000D03*
D11*
%TO.P,H2,2,Pin_2*%
%TO.N,Net-(H2-Pad2)*%
X90160000Y-90185000D03*
%TO.P,H2,3,Pin_3*%
%TO.N,Net-(H2-Pad3)*%
X92700000Y-90185000D03*
%TO.P,H2,4,Pin_4*%
%TO.N,Net-(H2-Pad4)*%
X95240000Y-90185000D03*
%TO.P,H2,5,Pin_5*%
%TO.N,Net-(H2-Pad5)*%
X97780000Y-90185000D03*
%TO.P,H2,6,Pin_6*%
%TO.N,Net-(H2-Pad6)*%
X100320000Y-90185000D03*
%TO.P,H2,7,Pin_7*%
%TO.N,Net-(H2-Pad7)*%
X102860000Y-90185000D03*
%TO.P,H2,8,Pin_8*%
%TO.N,Net-(H2-Pad8)*%
X105400000Y-90185000D03*
%TO.P,H2,9,Pin_9*%
%TO.N,Net-(H2-Pad9)*%
X105400000Y-82565000D03*
%TO.P,H2,10,Pin_10*%
%TO.N,Net-(H2-Pad10)*%
X102860000Y-82565000D03*
%TO.P,H2,11,Pin_11*%
%TO.N,Net-(H2-Pad11)*%
X100320000Y-82565000D03*
%TO.P,H2,12,Pin_12*%
%TO.N,Net-(H2-Pad12)*%
X97780000Y-82565000D03*
%TO.P,H2,13,Pin_13*%
%TO.N,Net-(H2-Pad13)*%
X95240000Y-82565000D03*
%TO.P,H2,14,Pin_14*%
%TO.N,Net-(H2-Pad14)*%
X92700000Y-82565000D03*
%TO.P,H2,15,Pin_15*%
%TO.N,Net-(H2-Pad15)*%
X90160000Y-82565000D03*
%TO.P,H2,16,Pin_16*%
%TO.N,Net-(H2-Pad16)*%
X87620000Y-82565000D03*
%TD*%
D10*
%TO.P,H1,1,Pin_1*%
%TO.N,Net-(H1-Pad1)*%
X71586000Y-50675000D03*
D11*
%TO.P,H1,2,Pin_2*%
%TO.N,Net-(H1-Pad2)*%
X74126000Y-50675000D03*
%TO.P,H1,3,Pin_3*%
%TO.N,Net-(H1-Pad3)*%
X76666000Y-50675000D03*
%TO.P,H1,4,Pin_4*%
%TO.N,Net-(H1-Pad4)*%
X79206000Y-50675000D03*
%TO.P,H1,5,Pin_5*%
%TO.N,Net-(H1-Pad5)*%
X81746000Y-50675000D03*
%TO.P,H1,6,Pin_6*%
%TO.N,Net-(H1-Pad6)*%
X84286000Y-50675000D03*
%TO.P,H1,7,Pin_7*%
%TO.N,Net-(H1-Pad7)*%
X86826000Y-50675000D03*
%TO.P,H1,8,Pin_8*%
%TO.N,Net-(H1-Pad8)*%
X89366000Y-50675000D03*
%TO.P,H1,9,Pin_9*%
%TO.N,Net-(H1-Pad9)*%
X91906000Y-50675000D03*
%TO.P,H1,10,Pin_10*%
%TO.N,Net-(H1-Pad10)*%
X94446000Y-50675000D03*
%TO.P,H1,11,Pin_11*%
%TO.N,Net-(H1-Pad11)*%
X96986000Y-50675000D03*
%TO.P,H1,12,Pin_12*%
%TO.N,Net-(H1-Pad12)*%
X99526000Y-50675000D03*
%TO.P,H1,13,Pin_13*%
%TO.N,Net-(H1-Pad13)*%
X102066000Y-50675000D03*
%TO.P,H1,14,Pin_14*%
%TO.N,Net-(H1-Pad14)*%
X104606000Y-50675000D03*
%TO.P,H1,15,Pin_15*%
%TO.N,Net-(H1-Pad15)*%
X104606000Y-35435000D03*
%TO.P,H1,16,Pin_16*%
%TO.N,Net-(H1-Pad16)*%
X102066000Y-35435000D03*
%TO.P,H1,17,Pin_17*%
%TO.N,Net-(H1-Pad17)*%
X99526000Y-35435000D03*
%TO.P,H1,18,Pin_18*%
%TO.N,Net-(H1-Pad18)*%
X96986000Y-35435000D03*
%TO.P,H1,19,Pin_19*%
%TO.N,Net-(H1-Pad19)*%
X94446000Y-35435000D03*
%TO.P,H1,20,Pin_20*%
%TO.N,Net-(H1-Pad20)*%
X91906000Y-35435000D03*
%TO.P,H1,21,Pin_21*%
%TO.N,Net-(H1-Pad21)*%
X89366000Y-35435000D03*
%TO.P,H1,22,Pin_22*%
%TO.N,Net-(H1-Pad22)*%
X86826000Y-35435000D03*
%TO.P,H1,23,Pin_23*%
%TO.N,Net-(H1-Pad23)*%
X84286000Y-35435000D03*
%TO.P,H1,24,Pin_24*%
%TO.N,Net-(H1-Pad24)*%
X81746000Y-35435000D03*
%TO.P,H1,25,Pin_25*%
%TO.N,Net-(H1-Pad25)*%
X79206000Y-35435000D03*
%TO.P,H1,26,Pin_26*%
%TO.N,Net-(H1-Pad26)*%
X76666000Y-35435000D03*
%TO.P,H1,27,Pin_27*%
%TO.N,Net-(H1-Pad27)*%
X74126000Y-35435000D03*
%TO.P,H1,28,Pin_28*%
%TO.N,Net-(H1-Pad28)*%
X71586000Y-35435000D03*
%TD*%
D10*
%TO.P,U2,1,Pin_1*%
%TO.N,Net-(H1-Pad1)*%
X74146000Y-53584000D03*
D11*
%TO.P,U2,2,Pin_2*%
%TO.N,Net-(H1-Pad2)*%
X76686000Y-53584000D03*
%TO.P,U2,3,Pin_3*%
%TO.N,Net-(H1-Pad3)*%
X79226000Y-53584000D03*
%TO.P,U2,4,Pin_4*%
%TO.N,Net-(H1-Pad4)*%
X81766000Y-53584000D03*
%TO.P,U2,5,Pin_5*%
%TO.N,Net-(H1-Pad5)*%
X84306000Y-53584000D03*
%TO.P,U2,6,Pin_6*%
%TO.N,Net-(H1-Pad6)*%
X86846000Y-53584000D03*
%TO.P,U2,7,Pin_7*%
%TO.N,Net-(H1-Pad7)*%
X89386000Y-53584000D03*
%TO.P,U2,8,Pin_8*%
%TO.N,Net-(H1-Pad8)*%
X91926000Y-53584000D03*
%TO.P,U2,9,Pin_9*%
%TO.N,Net-(H1-Pad9)*%
X94466000Y-53584000D03*
%TO.P,U2,10,Pin_10*%
%TO.N,Net-(H1-Pad10)*%
X97006000Y-53584000D03*
%TO.P,U2,11,Pin_11*%
%TO.N,Net-(H1-Pad11)*%
X99546000Y-53584000D03*
%TO.P,U2,12,Pin_12*%
%TO.N,Net-(H1-Pad12)*%
X102086000Y-53584000D03*
%TO.P,U2,13,Pin_13*%
%TO.N,Net-(H1-Pad13)*%
X104626000Y-53584000D03*
%TO.P,U2,14,Pin_14*%
%TO.N,Net-(H1-Pad14)*%
X107166000Y-53584000D03*
%TO.P,U2,15,Pin_15*%
%TO.N,Net-(H1-Pad15)*%
X107166000Y-38344000D03*
%TO.P,U2,16,Pin_16*%
%TO.N,Net-(H1-Pad16)*%
X104626000Y-38344000D03*
%TO.P,U2,17,Pin_17*%
%TO.N,Net-(H1-Pad17)*%
X102086000Y-38344000D03*
%TO.P,U2,18,Pin_18*%
%TO.N,Net-(H1-Pad18)*%
X99546000Y-38344000D03*
%TO.P,U2,19,Pin_19*%
%TO.N,Net-(H1-Pad19)*%
X97006000Y-38344000D03*
%TO.P,U2,20,Pin_20*%
%TO.N,Net-(H1-Pad20)*%
X94466000Y-38344000D03*
%TO.P,U2,21,Pin_21*%
%TO.N,Net-(H1-Pad21)*%
X91926000Y-38344000D03*
%TO.P,U2,22,Pin_22*%
%TO.N,Net-(H1-Pad22)*%
X89386000Y-38344000D03*
%TO.P,U2,23,Pin_23*%
%TO.N,Net-(H1-Pad23)*%
X86846000Y-38344000D03*
%TO.P,U2,24,Pin_24*%
%TO.N,Net-(H1-Pad24)*%
X84306000Y-38344000D03*
%TO.P,U2,25,Pin_25*%
%TO.N,Net-(H1-Pad25)*%
X81766000Y-38344000D03*
%TO.P,U2,26,Pin_26*%
%TO.N,Net-(H1-Pad26)*%
X79226000Y-38344000D03*
%TO.P,U2,27,Pin_27*%
%TO.N,Net-(H1-Pad27)*%
X76686000Y-38344000D03*
%TO.P,U2,28,Pin_28*%
%TO.N,Net-(H1-Pad28)*%
X74146000Y-38344000D03*
%TD*%
D10*
%TO.P,U3,1,Pin_1*%
%TO.N,Net-(H1-Pad11)*%
X165349000Y-77211000D03*
D11*
%TO.P,U3,2,Pin_2*%
%TO.N,Net-(U3-Pad2)*%
X162809000Y-77211000D03*
%TO.P,U3,3,Pin_3*%
%TO.N,Net-(U3-Pad3)*%
X160269000Y-77211000D03*
%TO.P,U3,4,Pin_4*%
%TO.N,Net-(U3-Pad4)*%
X157729000Y-77211000D03*
%TO.P,U3,5,Pin_5*%
%TO.N,Net-(U3-Pad5)*%
X155189000Y-77211000D03*
%TO.P,U3,6,Pin_6*%
%TO.N,unconnected-(U3-Pad6)*%
X152649000Y-77211000D03*
%TO.P,U3,7,Pin_7*%
%TO.N,unconnected-(U3-Pad7)*%
X150109000Y-77211000D03*
%TO.P,U3,8,Pin_8*%
%TO.N,Net-(H2-Pad4)*%
X147569000Y-77211000D03*
%TO.P,U3,9,Pin_9*%
%TO.N,Net-(H2-Pad3)*%
X145029000Y-77211000D03*
%TO.P,U3,10,Pin_10*%
%TO.N,Net-(H2-Pad2)*%
X142489000Y-77211000D03*
%TO.P,U3,11,Pin_11*%
%TO.N,Net-(H2-Pad1)*%
X139949000Y-77211000D03*
%TO.P,U3,12,Pin_12*%
%TO.N,unconnected-(U3-Pad12)*%
X137409000Y-77211000D03*
%TO.P,U3,13,Pin_13*%
%TO.N,unconnected-(U3-Pad13)*%
X134869000Y-77211000D03*
%TO.P,U3,14,Pin_14*%
%TO.N,unconnected-(U3-Pad14)*%
X132329000Y-77211000D03*
%TO.P,U3,15,Pin_15*%
%TO.N,Net-(H1-Pad7)*%
X129789000Y-77211000D03*
%TO.P,U3,16,Pin_16*%
%TO.N,Net-(H2-Pad8)*%
X127249000Y-77211000D03*
%TO.P,U3,17,Pin_17*%
%TO.N,Net-(H1-Pad8)*%
X124709000Y-77211000D03*
%TO.P,U3,18,Pin_18*%
%TO.N,Net-(U3-Pad18)*%
X122169000Y-77211000D03*
%TO.P,U3,19,Pin_19*%
%TO.N,Net-(H1-Pad9)*%
X119629000Y-77211000D03*
%TO.P,U3,20,Pin_20*%
%TO.N,Net-(H2-Pad8)*%
X117089000Y-77211000D03*
%TO.P,U3,21,Pin_21*%
%TO.N,Net-(H1-Pad10)*%
X117089000Y-92451000D03*
%TO.P,U3,22,Pin_22*%
%TO.N,Net-(U3-Pad22)*%
X119629000Y-92451000D03*
%TO.P,U3,23,Pin_23*%
%TO.N,Net-(U3-Pad23)*%
X122169000Y-92451000D03*
%TO.P,U3,24,Pin_24*%
%TO.N,Net-(U3-Pad24)*%
X124709000Y-92451000D03*
%TO.P,U3,25,Pin_25*%
%TO.N,Net-(U3-Pad25)*%
X127249000Y-92451000D03*
%TO.P,U3,26,Pin_26*%
%TO.N,unconnected-(U3-Pad26)*%
X129789000Y-92451000D03*
%TO.P,U3,27,Pin_27*%
%TO.N,unconnected-(U3-Pad27)*%
X132329000Y-92451000D03*
%TO.P,U3,28,Pin_28*%
%TO.N,Net-(H2-Pad5)*%
X134869000Y-92451000D03*
%TO.P,U3,29,Pin_29*%
%TO.N,Net-(H2-Pad6)*%
X137409000Y-92451000D03*
%TO.P,U3,30,Pin_30*%
%TO.N,Net-(H2-Pad7)*%
X139949000Y-92451000D03*
%TO.P,U3,31,Pin_31*%
%TO.N,Net-(H2-Pad9)*%
X142489000Y-92451000D03*
%TO.P,U3,32,Pin_32*%
%TO.N,Net-(H2-Pad10)*%
X145029000Y-92451000D03*
%TO.P,U3,33,Pin_33*%
%TO.N,Net-(H2-Pad11)*%
X147569000Y-92451000D03*
%TO.P,U3,34,Pin_34*%
%TO.N,unconnected-(U3-Pad34)*%
X150109000Y-92451000D03*
%TO.P,U3,35,Pin_35*%
%TO.N,Net-(H1-Pad14)*%
X152649000Y-92451000D03*
%TO.P,U3,36,Pin_36*%
%TO.N,Net-(H2-Pad16)*%
X155189000Y-92451000D03*
%TO.P,U3,37,Pin_37*%
%TO.N,Net-(H1-Pad13)*%
X157729000Y-92451000D03*
%TO.P,U3,38,Pin_38*%
%TO.N,Net-(U3-Pad38)*%
X160269000Y-92451000D03*
%TO.P,U3,39,Pin_39*%
%TO.N,Net-(H1-Pad12)*%
X162809000Y-92451000D03*
%TO.P,U3,40,Pin_40*%
%TO.N,Net-(H2-Pad16)*%
X165349000Y-92451000D03*
%TD*%
D10*
%TO.P,J1,1*%
%TO.N,Net-(J1-Pad1)*%
X177292000Y-88900000D03*
D12*
%TO.P,J1,2*%
%TO.N,unconnected-(J1-Pad2)*%
X174692000Y-88900000D03*
%TO.P,J1,3*%
%TO.N,Net-(H2-Pad8)*%
X179392000Y-88900000D03*
%TO.P,J1,4*%
%TO.N,Net-(H2-Pad16)*%
X172592000Y-88900000D03*
%TO.P,J1,5*%
%TO.N,Net-(J1-Pad5)*%
X179392000Y-91700000D03*
%TO.P,J1,6*%
%TO.N,unconnected-(J1-Pad6)*%
X172592000Y-91700000D03*
D13*
%TO.P,J1,7*%
%TO.N,N/C*%
X169142000Y-86050000D03*
X182842000Y-86050000D03*
D14*
X175992000Y-85250000D03*
%TD*%
D15*
%TO.N,Net-(H1-Pad13)*%
X127080600Y-82005100D03*
%TO.N,Net-(H1-Pad14)*%
X128062000Y-82563800D03*
%TO.N,Net-(H2-Pad4)*%
X136553000Y-87919200D03*
%TD*%
D16*
%TO.N,Net-(H1-Pad7)*%
X87951300Y-51024000D02*
X87951300Y-50675000D01*
X89386000Y-53584000D02*
X89386000Y-52458700D01*
X89386000Y-52458700D02*
X87951300Y-51024000D01*
X86826000Y-50675000D02*
X87951300Y-50675000D01*
%TO.N,Net-(H1-Pad8)*%
X120909200Y-71332600D02*
X114011200Y-64434600D01*
X114011200Y-64434600D02*
X103620600Y-64434600D01*
X123564500Y-78355500D02*
X121683800Y-78355500D01*
X120909200Y-77580900D02*
X120909200Y-71332600D01*
X103620600Y-64434600D02*
X93051300Y-53865300D01*
X92488700Y-53584000D02*
X90491300Y-51586600D01*
X89366000Y-50675000D02*
X90491300Y-50675000D01*
X121683800Y-78355500D02*
X120909200Y-77580900D01*
X91926000Y-53584000D02*
X92488700Y-53584000D01*
X124709000Y-77211000D02*
X123564500Y-78355500D01*
X93051300Y-53865300D02*
X93051300Y-53584000D01*
X92488700Y-53584000D02*
X93051300Y-53584000D01*
X90491300Y-51586600D02*
X90491300Y-50675000D01*
%TO.N,Net-(H1-Pad18)*%
X99546000Y-37218700D02*
X98111300Y-35784000D01*
X99546000Y-38344000D02*
X99546000Y-37218700D01*
X96986000Y-35435000D02*
X98111300Y-35435000D01*
X98111300Y-35784000D02*
X98111300Y-35435000D01*
%TO.N,Net-(H1-Pad9)*%
X93031300Y-51024000D02*
X93031300Y-50675000D01*
X94466000Y-52458700D02*
X93031300Y-51024000D01*
X91906000Y-50675000D02*
X93031300Y-50675000D01*
X94466000Y-53584000D02*
X94466000Y-52458700D01*
%TO.N,Net-(H1-Pad10)*%
X97006000Y-52458700D02*
X95571300Y-51024000D01*
X94446000Y-50675000D02*
X95571300Y-50675000D01*
X97006000Y-53584000D02*
X97006000Y-52458700D01*
X95571300Y-51024000D02*
X95571300Y-50675000D01*
%TO.N,Net-(H1-Pad11)*%
X99546000Y-52458700D02*
X98111300Y-51024000D01*
X100671300Y-53865300D02*
X110790200Y-63984200D01*
X163318200Y-76085700D02*
X164223700Y-76991200D01*
X161480400Y-74377400D02*
X163188700Y-76085700D01*
X98111300Y-51024000D02*
X98111300Y-50675000D01*
X165349000Y-77211000D02*
X164223700Y-77211000D01*
X151986600Y-63984200D02*
X161480400Y-73478000D01*
X96986000Y-50675000D02*
X98111300Y-50675000D01*
X164223700Y-76991200D02*
X164223700Y-77211000D01*
X99546000Y-53584000D02*
X99546000Y-52458700D01*
X110790200Y-63984200D02*
X151986600Y-63984200D01*
X99546000Y-53584000D02*
X100671300Y-53584000D01*
X100671300Y-53584000D02*
X100671300Y-53865300D01*
X163188700Y-76085700D02*
X163318200Y-76085700D01*
X161480400Y-73478000D02*
X161480400Y-74377400D01*
%TO.N,Net-(H1-Pad12)*%
X102086000Y-52458700D02*
X100651300Y-51024000D01*
X102086000Y-53584000D02*
X102086000Y-52458700D01*
X100651300Y-51024000D02*
X100651300Y-50675000D01*
X99526000Y-50675000D02*
X100651300Y-50675000D01*
%TO.N,Net-(H1-Pad13)*%
X157729000Y-92451000D02*
X156603700Y-92451000D01*
X102066000Y-50675000D02*
X103191300Y-50675000D01*
X146272500Y-81838500D02*
X156603700Y-92169700D01*
X127247200Y-81838500D02*
X146272500Y-81838500D01*
X127080600Y-82005100D02*
X127247200Y-81838500D01*
X104626000Y-52458700D02*
X103191300Y-51024000D01*
X104626000Y-53584000D02*
X104626000Y-52458700D01*
X103191300Y-51024000D02*
X103191300Y-50675000D01*
X156603700Y-92169700D02*
X156603700Y-92451000D01*
%TO.N,Net-(H1-Pad14)*%
X107166000Y-53584000D02*
X107166000Y-52458700D01*
X152649000Y-92451000D02*
X151523700Y-92451000D01*
X151523700Y-92451000D02*
X151523700Y-92169700D01*
X141917800Y-82563800D02*
X128062000Y-82563800D01*
X105731300Y-51024000D02*
X105731300Y-50675000D01*
X107166000Y-52458700D02*
X105731300Y-51024000D01*
X151523700Y-92169700D02*
X141917800Y-82563800D01*
X104606000Y-50675000D02*
X105731300Y-50675000D01*
%TO.N,Net-(H2-Pad1)*%
X138823700Y-77211000D02*
X138823700Y-77395800D01*
X138823700Y-77395800D02*
X134960700Y-81258800D01*
X92409200Y-81258800D02*
X91289800Y-82378200D01*
X134960700Y-81258800D02*
X92409200Y-81258800D01*
X91289800Y-83034300D02*
X90628600Y-83695500D01*
X89632300Y-83695500D02*
X87620000Y-85707800D01*
X91289800Y-82378200D02*
X91289800Y-83034300D01*
X90628600Y-83695500D02*
X89632300Y-83695500D01*
X139949000Y-77211000D02*
X138823700Y-77211000D01*
X87620000Y-85707800D02*
X87620000Y-90185000D01*
%TO.N,Net-(H2-Pad3)*%
X94749400Y-91320700D02*
X95240000Y-91320700D01*
X95240000Y-92446000D02*
X95240000Y-91320700D01*
X92700000Y-90185000D02*
X93825300Y-90185000D01*
X93825300Y-90185000D02*
X93825300Y-90396600D01*
X93825300Y-90396600D02*
X94749400Y-91320700D01*
%TO.N,Net-(H2-Pad4)*%
X101487600Y-89904800D02*
X101487600Y-90660500D01*
X100827400Y-91320700D02*
X99749200Y-91320700D01*
X99749200Y-91320700D02*
X98905300Y-92164600D01*
X101487600Y-90660500D02*
X100827400Y-91320700D01*
X97780000Y-92446000D02*
X98905300Y-92446000D01*
X136553000Y-87919200D02*
X103473200Y-87919200D01*
X103473200Y-87919200D02*
X101487600Y-89904800D01*
X98905300Y-92164600D02*
X98905300Y-92446000D01*
%TO.N,Net-(H2-Pad5)*%
X100320000Y-92446000D02*
X101445300Y-92446000D01*
X133743700Y-92169700D02*
X132884400Y-91310400D01*
X102388100Y-91310400D02*
X101445300Y-92253200D01*
X133743700Y-92451000D02*
X133743700Y-92169700D01*
X134869000Y-92451000D02*
X133743700Y-92451000D01*
X101445300Y-92253200D02*
X101445300Y-92446000D01*
X132884400Y-91310400D02*
X102388100Y-91310400D01*
%TO.N,Net-(H2-Pad6)*%
X136283700Y-92732300D02*
X135436800Y-93579200D01*
X136283700Y-92451000D02*
X136283700Y-92732300D01*
X135436800Y-93579200D02*
X104837200Y-93579200D01*
X137409000Y-92451000D02*
X136283700Y-92451000D01*
X103985300Y-92727300D02*
X103985300Y-92446000D01*
X102860000Y-92446000D02*
X103985300Y-92446000D01*
X104837200Y-93579200D02*
X103985300Y-92727300D01*
%TO.N,Net-(H2-Pad7)*%
X138823700Y-92451000D02*
X138823700Y-92169700D01*
X138823700Y-92169700D02*
X135713700Y-89059700D01*
X102860000Y-90185000D02*
X103985300Y-90185000D01*
X135713700Y-89059700D02*
X104829200Y-89059700D01*
X103985300Y-89903600D02*
X103985300Y-90185000D01*
X104829200Y-89059700D02*
X103985300Y-89903600D01*
X139949000Y-92451000D02*
X138823700Y-92451000D01*
%TO.N,Net-(H2-Pad8)*%
X128379300Y-58945400D02*
X129223200Y-59789300D01*
X129223200Y-59789300D02*
X151229300Y-59789300D01*
X117089000Y-77211000D02*
X118214300Y-77211000D01*
X119527900Y-78805900D02*
X124810100Y-78805900D01*
X181000900Y-91749500D02*
X179891000Y-92859400D01*
X179309000Y-86575300D02*
X181000900Y-88267200D01*
X127254000Y-58664000D02*
X128379300Y-58664000D01*
X173984800Y-86575300D02*
X179309000Y-86575300D01*
X178251100Y-92238200D02*
X178251100Y-90040900D01*
X179891000Y-92859400D02*
X178872300Y-92859400D01*
X131208700Y-74185400D02*
X131208700Y-73904000D01*
X178872300Y-92859400D02*
X178251100Y-92238200D01*
X128379300Y-58664000D02*
X128379300Y-58945400D01*
X181000900Y-88267200D02*
X181000900Y-91749500D01*
X124810100Y-78805900D02*
X126123700Y-77492300D01*
X128374300Y-77211000D02*
X128374300Y-77019800D01*
X126123700Y-77492300D02*
X126123700Y-77211000D01*
X132334000Y-73904000D02*
X131208700Y-73904000D01*
X128374300Y-77019800D02*
X131208700Y-74185400D01*
X127249000Y-77211000D02*
X126123700Y-77211000D01*
X166645200Y-75205200D02*
X166645200Y-79235700D01*
X178251100Y-90040900D02*
X179392000Y-88900000D01*
X118214300Y-77211000D02*
X118214300Y-77492300D01*
X151229300Y-59789300D02*
X166645200Y-75205200D01*
X118214300Y-77492300D02*
X119527900Y-78805900D01*
X166645200Y-79235700D02*
X173984800Y-86575300D01*
X127249000Y-77211000D02*
X128374300Y-77211000D01*
%TO.N,Net-(H2-Pad9)*%
X134485600Y-84826000D02*
X107940000Y-84826000D01*
X142489000Y-92451000D02*
X141363700Y-92451000D01*
X141363700Y-91704100D02*
X134485600Y-84826000D01*
X141363700Y-92451000D02*
X141363700Y-91704100D01*
%TO.N,Net-(H2-Pad10)*%
X135396400Y-83739400D02*
X143903700Y-92246700D01*
X145029000Y-92451000D02*
X143903700Y-92451000D01*
X143903700Y-92246700D02*
X143903700Y-92451000D01*
X127462900Y-83695600D02*
X127506700Y-83739400D01*
X107462900Y-83695600D02*
X127462900Y-83695600D01*
X105400000Y-84826000D02*
X106525300Y-84826000D01*
X106525300Y-84633200D02*
X107462900Y-83695600D01*
X106525300Y-84826000D02*
X106525300Y-84633200D01*
X127506700Y-83739400D02*
X135396400Y-83739400D01*
%TO.N,Net-(H2-Pad11)*%
X104829200Y-83700700D02*
X106069900Y-83700700D01*
X147569000Y-92451000D02*
X146443700Y-92451000D01*
X146443700Y-92169700D02*
X146443700Y-92451000D01*
X106069900Y-83700700D02*
X106525400Y-83245200D01*
X106525400Y-83245200D02*
X127649400Y-83245200D01*
X102860000Y-84826000D02*
X103985300Y-84826000D01*
X127649400Y-83245200D02*
X127693300Y-83289100D01*
X103985300Y-84544600D02*
X104829200Y-83700700D01*
X127693300Y-83289100D02*
X137563100Y-83289100D01*
X137563100Y-83289100D02*
X146443700Y-92169700D01*
X103985300Y-84826000D02*
X103985300Y-84544600D01*
%TO.N,Net-(H2-Pad16)*%
X96654600Y-92939900D02*
X96654600Y-89939000D01*
X155189000Y-92451000D02*
X154063700Y-92451000D01*
X97794600Y-94079900D02*
X96654600Y-92939900D01*
X90160000Y-84826000D02*
X91285300Y-84826000D01*
X154063700Y-92732300D02*
X152716100Y-94079900D01*
X91285300Y-85107400D02*
X91285300Y-84826000D01*
X96654600Y-89939000D02*
X92666900Y-85951300D01*
X154063700Y-92451000D02*
X154063700Y-92732300D01*
X92666900Y-85951300D02*
X92129200Y-85951300D01*
X152716100Y-94079900D02*
X97794600Y-94079900D01*
X92129200Y-85951300D02*
X91285300Y-85107400D01*
%TO.N,Net-(J1-Pad5)*%
X164052800Y-78336400D02*
X173462500Y-87746100D01*
X144504200Y-78336400D02*
X164052800Y-78336400D01*
X143759000Y-76821400D02*
X143759000Y-77591200D01*
X138539400Y-75029400D02*
X141967000Y-75029400D01*
X141967000Y-75029400D02*
X143759000Y-76821400D01*
X180522400Y-88425600D02*
X180522400Y-90569600D01*
X173462500Y-87746100D02*
X179842900Y-87746100D01*
X143759000Y-77591200D02*
X144504200Y-78336400D01*
X180522400Y-90569600D02*
X179392000Y-91700000D01*
X137414000Y-73904000D02*
X138539400Y-75029400D01*
X179842900Y-87746100D02*
X180522400Y-88425600D01*
%TO.N,Net-(U3-Pad2)*%
X159783400Y-75029300D02*
X144463200Y-75029300D01*
X144463200Y-75029300D02*
X143619300Y-74185400D01*
X142494000Y-73904000D02*
X143619300Y-73904000D01*
X162809000Y-77211000D02*
X161683700Y-77211000D01*
X143619300Y-74185400D02*
X143619300Y-73904000D01*
X161683700Y-77211000D02*
X161683700Y-76929600D01*
X161683700Y-76929600D02*
X159783400Y-75029300D01*
%TO.N,Net-(U3-Pad18)*%
X123294300Y-76929600D02*
X124138200Y-76085700D01*
X129327700Y-72778700D02*
X137984800Y-72778700D01*
X126739200Y-76085700D02*
X128379400Y-74445500D01*
X128379400Y-73727000D02*
X129327700Y-72778700D01*
X138828700Y-73622600D02*
X138828700Y-73904000D01*
X137984800Y-72778700D02*
X138828700Y-73622600D01*
X122169000Y-77211000D02*
X123294300Y-77211000D01*
X139954000Y-73904000D02*
X138828700Y-73904000D01*
X123294300Y-77211000D02*
X123294300Y-76929600D01*
X128379400Y-74445500D02*
X128379400Y-73727000D01*
X124138200Y-76085700D02*
X126739200Y-76085700D01*
%TO.N,Net-(U3-Pad38)*%
X134874000Y-73904000D02*
X135999300Y-73904000D01*
X159143700Y-92451000D02*
X159143700Y-92169700D01*
X139826600Y-75481600D02*
X137295600Y-75481600D01*
X141219000Y-76874000D02*
X139826600Y-75481600D01*
X160269000Y-92451000D02*
X159143700Y-92451000D01*
X137295600Y-75481600D02*
X135999300Y-74185300D01*
X159143700Y-92169700D02*
X146527900Y-79553900D01*
X141219000Y-77533700D02*
X141219000Y-76874000D01*
X146527900Y-79553900D02*
X143239200Y-79553900D01*
X135999300Y-74185300D02*
X135999300Y-73904000D01*
X143239200Y-79553900D02*
X141219000Y-77533700D01*
%TD*%
M02*
