%TF.GenerationSoftware,KiCad,Pcbnew,(6.0.0)*%
%TF.CreationDate,2022-08-27T02:03:40+01:00*%
%TF.ProjectId,AMSK6128r1,414d534b-3631-4323-9872-312e6b696361,rev?*%
%TF.SameCoordinates,Original*%
%TF.FileFunction,Legend,Bot*%
%TF.FilePolarity,Positive*%
%FSLAX46Y46*%
G04 Gerber Fmt 4.6, Leading zero omitted, Abs format (unit mm)*
G04 Created by KiCad (PCBNEW (6.0.0)) date 2022-08-27 02:03:40*
%MOMM*%
%LPD*%
G01*
G04 APERTURE LIST*
%ADD10C,0.150000*%
%ADD11C,0.120000*%
G04 APERTURE END LIST*
D10*
X166066952Y-89876380D02*
X165495523Y-89876380D01*
X165781238Y-90876380D02*
X165781238Y-89876380D01*
X165162190Y-90876380D02*
X165162190Y-89876380D01*
X164733619Y-90876380D02*
X164733619Y-90352571D01*
X164781238Y-90257333D01*
X164876476Y-90209714D01*
X165019333Y-90209714D01*
X165114571Y-90257333D01*
X165162190Y-90304952D01*
X163828857Y-90876380D02*
X163828857Y-90352571D01*
X163876476Y-90257333D01*
X163971714Y-90209714D01*
X164162190Y-90209714D01*
X164257428Y-90257333D01*
X163828857Y-90828761D02*
X163924095Y-90876380D01*
X164162190Y-90876380D01*
X164257428Y-90828761D01*
X164305047Y-90733523D01*
X164305047Y-90638285D01*
X164257428Y-90543047D01*
X164162190Y-90495428D01*
X163924095Y-90495428D01*
X163828857Y-90447809D01*
X163352666Y-90209714D02*
X163352666Y-90876380D01*
X163352666Y-90304952D02*
X163305047Y-90257333D01*
X163209809Y-90209714D01*
X163066952Y-90209714D01*
X162971714Y-90257333D01*
X162924095Y-90352571D01*
X162924095Y-90876380D01*
X162447904Y-90876380D02*
X162447904Y-89876380D01*
X162352666Y-90495428D02*
X162066952Y-90876380D01*
X162066952Y-90209714D02*
X162447904Y-90590666D01*
X161686000Y-90828761D02*
X161590761Y-90876380D01*
X161400285Y-90876380D01*
X161305047Y-90828761D01*
X161257428Y-90733523D01*
X161257428Y-90685904D01*
X161305047Y-90590666D01*
X161400285Y-90543047D01*
X161543142Y-90543047D01*
X161638380Y-90495428D01*
X161686000Y-90400190D01*
X161686000Y-90352571D01*
X161638380Y-90257333D01*
X161543142Y-90209714D01*
X161400285Y-90209714D01*
X161305047Y-90257333D01*
X160209809Y-90209714D02*
X159828857Y-90209714D01*
X160066952Y-89876380D02*
X160066952Y-90733523D01*
X160019333Y-90828761D01*
X159924095Y-90876380D01*
X159828857Y-90876380D01*
X159352666Y-90876380D02*
X159447904Y-90828761D01*
X159495523Y-90781142D01*
X159543142Y-90685904D01*
X159543142Y-90400190D01*
X159495523Y-90304952D01*
X159447904Y-90257333D01*
X159352666Y-90209714D01*
X159209809Y-90209714D01*
X159114571Y-90257333D01*
X159066952Y-90304952D01*
X159019333Y-90400190D01*
X159019333Y-90685904D01*
X159066952Y-90781142D01*
X159114571Y-90828761D01*
X159209809Y-90876380D01*
X159352666Y-90876380D01*
X157257428Y-90876380D02*
X157590761Y-90400190D01*
X157828857Y-90876380D02*
X157828857Y-89876380D01*
X157447904Y-89876380D01*
X157352666Y-89924000D01*
X157305047Y-89971619D01*
X157257428Y-90066857D01*
X157257428Y-90209714D01*
X157305047Y-90304952D01*
X157352666Y-90352571D01*
X157447904Y-90400190D01*
X157828857Y-90400190D01*
X156686000Y-90876380D02*
X156781238Y-90828761D01*
X156828857Y-90781142D01*
X156876476Y-90685904D01*
X156876476Y-90400190D01*
X156828857Y-90304952D01*
X156781238Y-90257333D01*
X156686000Y-90209714D01*
X156543142Y-90209714D01*
X156447904Y-90257333D01*
X156400285Y-90304952D01*
X156352666Y-90400190D01*
X156352666Y-90685904D01*
X156400285Y-90781142D01*
X156447904Y-90828761D01*
X156543142Y-90876380D01*
X156686000Y-90876380D01*
X155924095Y-90876380D02*
X155924095Y-89876380D01*
X155924095Y-90257333D02*
X155828857Y-90209714D01*
X155638380Y-90209714D01*
X155543142Y-90257333D01*
X155495523Y-90304952D01*
X155447904Y-90400190D01*
X155447904Y-90685904D01*
X155495523Y-90781142D01*
X155543142Y-90828761D01*
X155638380Y-90876380D01*
X155828857Y-90876380D01*
X155924095Y-90828761D01*
X154305047Y-89876380D02*
X154305047Y-90066857D01*
X153924095Y-89876380D02*
X153924095Y-90066857D01*
X153495523Y-90876380D02*
X153495523Y-89876380D01*
X153114571Y-89876380D01*
X153019333Y-89924000D01*
X152971714Y-89971619D01*
X152924095Y-90066857D01*
X152924095Y-90209714D01*
X152971714Y-90304952D01*
X153019333Y-90352571D01*
X153114571Y-90400190D01*
X153495523Y-90400190D01*
X152114571Y-90828761D02*
X152209809Y-90876380D01*
X152400285Y-90876380D01*
X152495523Y-90828761D01*
X152543142Y-90733523D01*
X152543142Y-90352571D01*
X152495523Y-90257333D01*
X152400285Y-90209714D01*
X152209809Y-90209714D01*
X152114571Y-90257333D01*
X152066952Y-90352571D01*
X152066952Y-90447809D01*
X152543142Y-90543047D01*
X151257428Y-90828761D02*
X151352666Y-90876380D01*
X151543142Y-90876380D01*
X151638380Y-90828761D01*
X151686000Y-90733523D01*
X151686000Y-90352571D01*
X151638380Y-90257333D01*
X151543142Y-90209714D01*
X151352666Y-90209714D01*
X151257428Y-90257333D01*
X151209809Y-90352571D01*
X151209809Y-90447809D01*
X151686000Y-90543047D01*
X150781238Y-90209714D02*
X150781238Y-91209714D01*
X150781238Y-90257333D02*
X150686000Y-90209714D01*
X150495523Y-90209714D01*
X150400285Y-90257333D01*
X150352666Y-90304952D01*
X150305047Y-90400190D01*
X150305047Y-90685904D01*
X150352666Y-90781142D01*
X150400285Y-90828761D01*
X150495523Y-90876380D01*
X150686000Y-90876380D01*
X150781238Y-90828761D01*
X149733619Y-90876380D02*
X149828857Y-90828761D01*
X149876476Y-90781142D01*
X149924095Y-90685904D01*
X149924095Y-90400190D01*
X149876476Y-90304952D01*
X149828857Y-90257333D01*
X149733619Y-90209714D01*
X149590761Y-90209714D01*
X149495523Y-90257333D01*
X149447904Y-90304952D01*
X149400285Y-90400190D01*
X149400285Y-90685904D01*
X149447904Y-90781142D01*
X149495523Y-90828761D01*
X149590761Y-90876380D01*
X149733619Y-90876380D01*
X149019333Y-89876380D02*
X149019333Y-90066857D01*
X148638380Y-89876380D02*
X148638380Y-90066857D01*
X147590761Y-89876380D02*
X147019333Y-89876380D01*
X147305047Y-90876380D02*
X147305047Y-89876380D01*
X146257428Y-90876380D02*
X146257428Y-90352571D01*
X146305047Y-90257333D01*
X146400285Y-90209714D01*
X146590761Y-90209714D01*
X146686000Y-90257333D01*
X146257428Y-90828761D02*
X146352666Y-90876380D01*
X146590761Y-90876380D01*
X146686000Y-90828761D01*
X146733619Y-90733523D01*
X146733619Y-90638285D01*
X146686000Y-90543047D01*
X146590761Y-90495428D01*
X146352666Y-90495428D01*
X146257428Y-90447809D01*
X145876476Y-90209714D02*
X145638380Y-90876380D01*
X145400285Y-90209714D02*
X145638380Y-90876380D01*
X145733619Y-91114476D01*
X145781238Y-91162095D01*
X145876476Y-91209714D01*
X144876476Y-90876380D02*
X144971714Y-90828761D01*
X145019333Y-90733523D01*
X145019333Y-89876380D01*
X144352666Y-90876380D02*
X144447904Y-90828761D01*
X144495523Y-90781142D01*
X144543142Y-90685904D01*
X144543142Y-90400190D01*
X144495523Y-90304952D01*
X144447904Y-90257333D01*
X144352666Y-90209714D01*
X144209809Y-90209714D01*
X144114571Y-90257333D01*
X144066952Y-90304952D01*
X144019333Y-90400190D01*
X144019333Y-90685904D01*
X144066952Y-90781142D01*
X144114571Y-90828761D01*
X144209809Y-90876380D01*
X144352666Y-90876380D01*
X143590761Y-90876380D02*
X143590761Y-90209714D01*
X143590761Y-90400190D02*
X143543142Y-90304952D01*
X143495523Y-90257333D01*
X143400285Y-90209714D01*
X143305047Y-90209714D01*
%TO.C,J1*%
X177720095Y-83002380D02*
X177720095Y-82002380D01*
X177339142Y-82002380D01*
X177243904Y-82050000D01*
X177196285Y-82097619D01*
X177148666Y-82192857D01*
X177148666Y-82335714D01*
X177196285Y-82430952D01*
X177243904Y-82478571D01*
X177339142Y-82526190D01*
X177720095Y-82526190D01*
X176767714Y-82954761D02*
X176624857Y-83002380D01*
X176386761Y-83002380D01*
X176291523Y-82954761D01*
X176243904Y-82907142D01*
X176196285Y-82811904D01*
X176196285Y-82716666D01*
X176243904Y-82621428D01*
X176291523Y-82573809D01*
X176386761Y-82526190D01*
X176577238Y-82478571D01*
X176672476Y-82430952D01*
X176720095Y-82383333D01*
X176767714Y-82288095D01*
X176767714Y-82192857D01*
X176720095Y-82097619D01*
X176672476Y-82050000D01*
X176577238Y-82002380D01*
X176339142Y-82002380D01*
X176196285Y-82050000D01*
X175053428Y-81954761D02*
X175910571Y-83240476D01*
X174767714Y-82097619D02*
X174720095Y-82050000D01*
X174624857Y-82002380D01*
X174386761Y-82002380D01*
X174291523Y-82050000D01*
X174243904Y-82097619D01*
X174196285Y-82192857D01*
X174196285Y-82288095D01*
X174243904Y-82430952D01*
X174815333Y-83002380D01*
X174196285Y-83002380D01*
D11*
X167892000Y-93300000D02*
X167892000Y-80300000D01*
X184092000Y-93300000D02*
X184092000Y-80300000D01*
X167892000Y-93300000D02*
X184092000Y-93300000D01*
X167892000Y-80300000D02*
X184092000Y-80300000D01*
%TD*%
M02*
