M48
; DRILL file {KiCad (6.0.0)} date Sat Aug 27 02:03:38 2022
; FORMAT={-:-/ absolute / inch / decimal}
; #@! TF.CreationDate,2022-08-27T02:03:38+01:00
; #@! TF.GenerationSoftware,Kicad,Pcbnew,(6.0.0)
; #@! TF.FileFunction,Plated,1,2,PTH
FMAT,2
INCH
; #@! TA.AperFunction,Plated,PTH,ViaDrill
T1C0.0157
; #@! TA.AperFunction,Plated,PTH,ComponentDrill
T2C0.0315
; #@! TA.AperFunction,Plated,PTH,ComponentDrill
T3C0.0394
%
G90
G05
T1
X5.0032Y-3.2285
X5.0418Y-3.2505
X5.3761Y-3.4614
T2
X2.8183Y-1.3951
X2.8183Y-1.9951
X2.9183Y-1.3951
X2.9183Y-1.9951
X2.9191Y-1.5096
X2.9191Y-2.1096
X3.0183Y-1.3951
X3.0183Y-1.9951
X3.0191Y-1.5096
X3.0191Y-2.1096
X3.1183Y-1.3951
X3.1183Y-1.9951
X3.1191Y-1.5096
X3.1191Y-2.1096
X3.2183Y-1.3951
X3.2183Y-1.9951
X3.2191Y-1.5096
X3.2191Y-2.1096
X3.3183Y-1.3951
X3.3183Y-1.9951
X3.3191Y-1.5096
X3.3191Y-2.1096
X3.4183Y-1.3951
X3.4183Y-1.9951
X3.4191Y-1.5096
X3.4191Y-2.1096
X3.4496Y-3.2506
X3.4496Y-3.5506
X3.5183Y-1.3951
X3.5183Y-1.9951
X3.5191Y-1.5096
X3.5191Y-2.1096
X3.5496Y-3.2506
X3.5496Y-3.3396
X3.5496Y-3.5506
X3.5496Y-3.6396
X3.6183Y-1.3951
X3.6183Y-1.9951
X3.6191Y-1.5096
X3.6191Y-2.1096
X3.6496Y-3.2506
X3.6496Y-3.3396
X3.6496Y-3.5506
X3.6496Y-3.6396
X3.7183Y-1.3951
X3.7183Y-1.9951
X3.7191Y-1.5096
X3.7191Y-2.1096
X3.7496Y-3.2506
X3.7496Y-3.3396
X3.7496Y-3.5506
X3.7496Y-3.6396
X3.8183Y-1.3951
X3.8183Y-1.9951
X3.8191Y-1.5096
X3.8191Y-2.1096
X3.8496Y-3.2506
X3.8496Y-3.3396
X3.8496Y-3.5506
X3.8496Y-3.6396
X3.9183Y-1.3951
X3.9183Y-1.9951
X3.9191Y-1.5096
X3.9191Y-2.1096
X3.9496Y-3.2506
X3.9496Y-3.3396
X3.9496Y-3.5506
X3.9496Y-3.6396
X4.0183Y-1.3951
X4.0183Y-1.9951
X4.0191Y-1.5096
X4.0191Y-2.1096
X4.0496Y-3.2506
X4.0496Y-3.3396
X4.0496Y-3.5506
X4.0496Y-3.6396
X4.1183Y-1.3951
X4.1183Y-1.9951
X4.1191Y-1.5096
X4.1191Y-2.1096
X4.1496Y-3.2506
X4.1496Y-3.3396
X4.1496Y-3.5506
X4.1496Y-3.6396
X4.2191Y-1.5096
X4.2191Y-2.1096
X4.2496Y-3.3396
X4.2496Y-3.6396
X4.6098Y-3.0398
X4.6098Y-3.6398
X4.7098Y-3.0398
X4.7098Y-3.6398
X4.8098Y-3.0398
X4.8098Y-3.6398
X4.9098Y-3.0398
X4.9098Y-3.6398
X5.0098Y-3.0398
X5.0098Y-3.6398
X5.1098Y-3.0398
X5.1098Y-3.6398
X5.2098Y-3.0398
X5.2098Y-3.6398
X5.3098Y-3.0398
X5.3098Y-3.6398
X5.4098Y-3.0398
X5.4098Y-3.6398
X5.5098Y-3.0398
X5.5098Y-3.6398
X5.6098Y-3.0398
X5.6098Y-3.6398
X5.7098Y-3.0398
X5.7098Y-3.6398
X5.8098Y-3.0398
X5.8098Y-3.6398
X5.9098Y-3.0398
X5.9098Y-3.6398
X6.0098Y-3.0398
X6.0098Y-3.6398
X6.1098Y-3.0398
X6.1098Y-3.6398
X6.2098Y-3.0398
X6.2098Y-3.6398
X6.3098Y-3.0398
X6.3098Y-3.6398
X6.4098Y-3.0398
X6.4098Y-3.6398
X6.5098Y-3.0398
X6.5098Y-3.6398
X6.795Y-3.5
X6.795Y-3.6102
X6.8776Y-3.5
X6.98Y-3.5
X7.0627Y-3.5
X7.0627Y-3.6102
T3
X4.91Y-2.3096
X4.91Y-2.9096
X5.01Y-2.3096
X5.01Y-2.9096
X5.11Y-2.3096
X5.11Y-2.9096
X5.21Y-2.3096
X5.21Y-2.9096
X5.31Y-2.3096
X5.31Y-2.9096
X5.41Y-2.3096
X5.41Y-2.9096
X5.51Y-2.3096
X5.51Y-2.9096
X5.61Y-2.3096
X5.61Y-2.9096
X5.71Y-2.3096
X5.71Y-2.9096
X5.81Y-2.3096
X5.81Y-2.9096
X5.91Y-2.3096
X5.91Y-2.9096
X6.01Y-2.3096
X6.01Y-2.9096
X6.11Y-2.3096
X6.11Y-2.9096
X6.21Y-2.3096
X6.21Y-2.9096
X6.31Y-2.3096
X6.31Y-2.9096
T3
G00X6.6591Y-3.3583
M15
G01X6.6591Y-3.4173
M16
G05
G00X6.8894Y-3.3563
M15
G01X6.9682Y-3.3563
M16
G05
G00X7.1985Y-3.3583
M15
G01X7.1985Y-3.4173
M16
G05
T0
M30
