%TF.GenerationSoftware,KiCad,Pcbnew,(6.0.0)*%
%TF.CreationDate,2022-08-27T02:03:40+01:00*%
%TF.ProjectId,AMSK6128r1,414d534b-3631-4323-9872-312e6b696361,rev?*%
%TF.SameCoordinates,Original*%
%TF.FileFunction,Legend,Top*%
%TF.FilePolarity,Positive*%
%FSLAX46Y46*%
G04 Gerber Fmt 4.6, Leading zero omitted, Abs format (unit mm)*
G04 Created by KiCad (PCBNEW (6.0.0)) date 2022-08-27 02:03:40*
%MOMM*%
%LPD*%
G01*
G04 APERTURE LIST*
%ADD10C,0.150000*%
%ADD11C,0.120000*%
G04 APERTURE END LIST*
D10*
X140986095Y-67508380D02*
X140986095Y-66508380D01*
X141557523Y-67508380D01*
X141557523Y-66508380D01*
X141986095Y-67222666D02*
X142462285Y-67222666D01*
X141890857Y-67508380D02*
X142224190Y-66508380D01*
X142557523Y-67508380D01*
X142890857Y-67508380D02*
X142890857Y-66508380D01*
X143462285Y-67508380D01*
X143462285Y-66508380D01*
X144128952Y-66508380D02*
X144319428Y-66508380D01*
X144414666Y-66556000D01*
X144509904Y-66651238D01*
X144557523Y-66841714D01*
X144557523Y-67175047D01*
X144509904Y-67365523D01*
X144414666Y-67460761D01*
X144319428Y-67508380D01*
X144128952Y-67508380D01*
X144033714Y-67460761D01*
X143938476Y-67365523D01*
X143890857Y-67175047D01*
X143890857Y-66841714D01*
X143938476Y-66651238D01*
X144033714Y-66556000D01*
X144128952Y-66508380D01*
X90265333Y-45124666D02*
X90741523Y-45124666D01*
X90170095Y-45410380D02*
X90503428Y-44410380D01*
X90836761Y-45410380D01*
X91360571Y-44934190D02*
X91360571Y-45410380D01*
X91027238Y-44410380D02*
X91360571Y-44934190D01*
X91693904Y-44410380D01*
X91583619Y-57695666D02*
X92059809Y-57695666D01*
X91488380Y-57981380D02*
X91821714Y-56981380D01*
X92155047Y-57981380D01*
X92488380Y-57981380D02*
X92488380Y-56981380D01*
X92821714Y-57695666D01*
X93155047Y-56981380D01*
X93155047Y-57981380D01*
X93583619Y-57933761D02*
X93726476Y-57981380D01*
X93964571Y-57981380D01*
X94059809Y-57933761D01*
X94107428Y-57886142D01*
X94155047Y-57790904D01*
X94155047Y-57695666D01*
X94107428Y-57600428D01*
X94059809Y-57552809D01*
X93964571Y-57505190D01*
X93774095Y-57457571D01*
X93678857Y-57409952D01*
X93631238Y-57362333D01*
X93583619Y-57267095D01*
X93583619Y-57171857D01*
X93631238Y-57076619D01*
X93678857Y-57029000D01*
X93774095Y-56981380D01*
X94012190Y-56981380D01*
X94155047Y-57029000D01*
X94583619Y-57981380D02*
X94583619Y-56981380D01*
X95155047Y-57981380D02*
X94726476Y-57409952D01*
X95155047Y-56981380D02*
X94583619Y-57552809D01*
X95964571Y-57933761D02*
X95869333Y-57981380D01*
X95678857Y-57981380D01*
X95583619Y-57933761D01*
X95536000Y-57838523D01*
X95536000Y-57457571D01*
X95583619Y-57362333D01*
X95678857Y-57314714D01*
X95869333Y-57314714D01*
X95964571Y-57362333D01*
X96012190Y-57457571D01*
X96012190Y-57552809D01*
X95536000Y-57648047D01*
X96345523Y-57314714D02*
X96583619Y-57981380D01*
X96821714Y-57314714D02*
X96583619Y-57981380D01*
X96488380Y-58219476D01*
X96440761Y-58267095D01*
X96345523Y-58314714D01*
X97202666Y-57981380D02*
X97202666Y-56981380D01*
X97202666Y-57362333D02*
X97297904Y-57314714D01*
X97488380Y-57314714D01*
X97583619Y-57362333D01*
X97631238Y-57409952D01*
X97678857Y-57505190D01*
X97678857Y-57790904D01*
X97631238Y-57886142D01*
X97583619Y-57933761D01*
X97488380Y-57981380D01*
X97297904Y-57981380D01*
X97202666Y-57933761D01*
X98250285Y-57981380D02*
X98155047Y-57933761D01*
X98107428Y-57886142D01*
X98059809Y-57790904D01*
X98059809Y-57505190D01*
X98107428Y-57409952D01*
X98155047Y-57362333D01*
X98250285Y-57314714D01*
X98393142Y-57314714D01*
X98488380Y-57362333D01*
X98536000Y-57409952D01*
X98583619Y-57505190D01*
X98583619Y-57790904D01*
X98536000Y-57886142D01*
X98488380Y-57933761D01*
X98393142Y-57981380D01*
X98250285Y-57981380D01*
X99440761Y-57981380D02*
X99440761Y-57457571D01*
X99393142Y-57362333D01*
X99297904Y-57314714D01*
X99107428Y-57314714D01*
X99012190Y-57362333D01*
X99440761Y-57933761D02*
X99345523Y-57981380D01*
X99107428Y-57981380D01*
X99012190Y-57933761D01*
X98964571Y-57838523D01*
X98964571Y-57743285D01*
X99012190Y-57648047D01*
X99107428Y-57600428D01*
X99345523Y-57600428D01*
X99440761Y-57552809D01*
X99916952Y-57981380D02*
X99916952Y-57314714D01*
X99916952Y-57505190D02*
X99964571Y-57409952D01*
X100012190Y-57362333D01*
X100107428Y-57314714D01*
X100202666Y-57314714D01*
X100964571Y-57981380D02*
X100964571Y-56981380D01*
X100964571Y-57933761D02*
X100869333Y-57981380D01*
X100678857Y-57981380D01*
X100583619Y-57933761D01*
X100536000Y-57886142D01*
X100488380Y-57790904D01*
X100488380Y-57505190D01*
X100536000Y-57409952D01*
X100583619Y-57362333D01*
X100678857Y-57314714D01*
X100869333Y-57314714D01*
X100964571Y-57362333D01*
X102107428Y-57314714D02*
X102345523Y-57981380D01*
X102583619Y-57314714D01*
X103488380Y-57981380D02*
X102916952Y-57981380D01*
X103202666Y-57981380D02*
X103202666Y-56981380D01*
X103107428Y-57124238D01*
X103012190Y-57219476D01*
X102916952Y-57267095D01*
X90274095Y-59305666D02*
X90750285Y-59305666D01*
X90178857Y-59591380D02*
X90512190Y-58591380D01*
X90845523Y-59591380D01*
X91178857Y-59591380D02*
X91178857Y-58591380D01*
X91512190Y-59305666D01*
X91845523Y-58591380D01*
X91845523Y-59591380D01*
X92274095Y-59543761D02*
X92416952Y-59591380D01*
X92655047Y-59591380D01*
X92750285Y-59543761D01*
X92797904Y-59496142D01*
X92845523Y-59400904D01*
X92845523Y-59305666D01*
X92797904Y-59210428D01*
X92750285Y-59162809D01*
X92655047Y-59115190D01*
X92464571Y-59067571D01*
X92369333Y-59019952D01*
X92321714Y-58972333D01*
X92274095Y-58877095D01*
X92274095Y-58781857D01*
X92321714Y-58686619D01*
X92369333Y-58639000D01*
X92464571Y-58591380D01*
X92702666Y-58591380D01*
X92845523Y-58639000D01*
X93131238Y-58591380D02*
X93702666Y-58591380D01*
X93416952Y-59591380D02*
X93416952Y-58591380D01*
X94607428Y-59591380D02*
X94274095Y-59115190D01*
X94036000Y-59591380D02*
X94036000Y-58591380D01*
X94416952Y-58591380D01*
X94512190Y-58639000D01*
X94559809Y-58686619D01*
X94607428Y-58781857D01*
X94607428Y-58924714D01*
X94559809Y-59019952D01*
X94512190Y-59067571D01*
X94416952Y-59115190D01*
X94036000Y-59115190D01*
X94988380Y-59305666D02*
X95464571Y-59305666D01*
X94893142Y-59591380D02*
X95226476Y-58591380D01*
X95559809Y-59591380D01*
X95893142Y-59591380D02*
X95893142Y-58591380D01*
X96131238Y-58591380D01*
X96274095Y-58639000D01*
X96369333Y-58734238D01*
X96416952Y-58829476D01*
X96464571Y-59019952D01*
X96464571Y-59162809D01*
X96416952Y-59353285D01*
X96369333Y-59448523D01*
X96274095Y-59543761D01*
X96131238Y-59591380D01*
X95893142Y-59591380D01*
X98226476Y-59496142D02*
X98178857Y-59543761D01*
X98036000Y-59591380D01*
X97940761Y-59591380D01*
X97797904Y-59543761D01*
X97702666Y-59448523D01*
X97655047Y-59353285D01*
X97607428Y-59162809D01*
X97607428Y-59019952D01*
X97655047Y-58829476D01*
X97702666Y-58734238D01*
X97797904Y-58639000D01*
X97940761Y-58591380D01*
X98036000Y-58591380D01*
X98178857Y-58639000D01*
X98226476Y-58686619D01*
X98655047Y-59591380D02*
X98655047Y-58591380D01*
X99036000Y-58591380D01*
X99131238Y-58639000D01*
X99178857Y-58686619D01*
X99226476Y-58781857D01*
X99226476Y-58924714D01*
X99178857Y-59019952D01*
X99131238Y-59067571D01*
X99036000Y-59115190D01*
X98655047Y-59115190D01*
X100226476Y-59496142D02*
X100178857Y-59543761D01*
X100036000Y-59591380D01*
X99940761Y-59591380D01*
X99797904Y-59543761D01*
X99702666Y-59448523D01*
X99655047Y-59353285D01*
X99607428Y-59162809D01*
X99607428Y-59019952D01*
X99655047Y-58829476D01*
X99702666Y-58734238D01*
X99797904Y-58639000D01*
X99940761Y-58591380D01*
X100036000Y-58591380D01*
X100178857Y-58639000D01*
X100226476Y-58686619D01*
X101845523Y-58591380D02*
X101655047Y-58591380D01*
X101559809Y-58639000D01*
X101512190Y-58686619D01*
X101416952Y-58829476D01*
X101369333Y-59019952D01*
X101369333Y-59400904D01*
X101416952Y-59496142D01*
X101464571Y-59543761D01*
X101559809Y-59591380D01*
X101750285Y-59591380D01*
X101845523Y-59543761D01*
X101893142Y-59496142D01*
X101940761Y-59400904D01*
X101940761Y-59162809D01*
X101893142Y-59067571D01*
X101845523Y-59019952D01*
X101750285Y-58972333D01*
X101559809Y-58972333D01*
X101464571Y-59019952D01*
X101416952Y-59067571D01*
X101369333Y-59162809D01*
X102893142Y-59591380D02*
X102321714Y-59591380D01*
X102607428Y-59591380D02*
X102607428Y-58591380D01*
X102512190Y-58734238D01*
X102416952Y-58829476D01*
X102321714Y-58877095D01*
X103274095Y-58686619D02*
X103321714Y-58639000D01*
X103416952Y-58591380D01*
X103655047Y-58591380D01*
X103750285Y-58639000D01*
X103797904Y-58686619D01*
X103845523Y-58781857D01*
X103845523Y-58877095D01*
X103797904Y-59019952D01*
X103226476Y-59591380D01*
X103845523Y-59591380D01*
X104416952Y-59019952D02*
X104321714Y-58972333D01*
X104274095Y-58924714D01*
X104226476Y-58829476D01*
X104226476Y-58781857D01*
X104274095Y-58686619D01*
X104321714Y-58639000D01*
X104416952Y-58591380D01*
X104607428Y-58591380D01*
X104702666Y-58639000D01*
X104750285Y-58686619D01*
X104797904Y-58781857D01*
X104797904Y-58829476D01*
X104750285Y-58924714D01*
X104702666Y-58972333D01*
X104607428Y-59019952D01*
X104416952Y-59019952D01*
X104321714Y-59067571D01*
X104274095Y-59115190D01*
X104226476Y-59210428D01*
X104226476Y-59400904D01*
X104274095Y-59496142D01*
X104321714Y-59543761D01*
X104416952Y-59591380D01*
X104607428Y-59591380D01*
X104702666Y-59543761D01*
X104750285Y-59496142D01*
X104797904Y-59400904D01*
X104797904Y-59210428D01*
X104750285Y-59115190D01*
X104702666Y-59067571D01*
X104607428Y-59019952D01*
X94583619Y-60201380D02*
X94678857Y-60201380D01*
X94774095Y-60249000D01*
X94821714Y-60296619D01*
X94869333Y-60391857D01*
X94916952Y-60582333D01*
X94916952Y-60820428D01*
X94869333Y-61010904D01*
X94821714Y-61106142D01*
X94774095Y-61153761D01*
X94678857Y-61201380D01*
X94583619Y-61201380D01*
X94488380Y-61153761D01*
X94440761Y-61106142D01*
X94393142Y-61010904D01*
X94345523Y-60820428D01*
X94345523Y-60582333D01*
X94393142Y-60391857D01*
X94440761Y-60296619D01*
X94488380Y-60249000D01*
X94583619Y-60201380D01*
X95488380Y-60629952D02*
X95393142Y-60582333D01*
X95345523Y-60534714D01*
X95297904Y-60439476D01*
X95297904Y-60391857D01*
X95345523Y-60296619D01*
X95393142Y-60249000D01*
X95488380Y-60201380D01*
X95678857Y-60201380D01*
X95774095Y-60249000D01*
X95821714Y-60296619D01*
X95869333Y-60391857D01*
X95869333Y-60439476D01*
X95821714Y-60534714D01*
X95774095Y-60582333D01*
X95678857Y-60629952D01*
X95488380Y-60629952D01*
X95393142Y-60677571D01*
X95345523Y-60725190D01*
X95297904Y-60820428D01*
X95297904Y-61010904D01*
X95345523Y-61106142D01*
X95393142Y-61153761D01*
X95488380Y-61201380D01*
X95678857Y-61201380D01*
X95774095Y-61153761D01*
X95821714Y-61106142D01*
X95869333Y-61010904D01*
X95869333Y-60820428D01*
X95821714Y-60725190D01*
X95774095Y-60677571D01*
X95678857Y-60629952D01*
X97012190Y-60153761D02*
X96155047Y-61439476D01*
X97297904Y-60296619D02*
X97345523Y-60249000D01*
X97440761Y-60201380D01*
X97678857Y-60201380D01*
X97774095Y-60249000D01*
X97821714Y-60296619D01*
X97869333Y-60391857D01*
X97869333Y-60487095D01*
X97821714Y-60629952D01*
X97250285Y-61201380D01*
X97869333Y-61201380D01*
X98488380Y-60201380D02*
X98583619Y-60201380D01*
X98678857Y-60249000D01*
X98726476Y-60296619D01*
X98774095Y-60391857D01*
X98821714Y-60582333D01*
X98821714Y-60820428D01*
X98774095Y-61010904D01*
X98726476Y-61106142D01*
X98678857Y-61153761D01*
X98583619Y-61201380D01*
X98488380Y-61201380D01*
X98393142Y-61153761D01*
X98345523Y-61106142D01*
X98297904Y-61010904D01*
X98250285Y-60820428D01*
X98250285Y-60582333D01*
X98297904Y-60391857D01*
X98345523Y-60296619D01*
X98393142Y-60249000D01*
X98488380Y-60201380D01*
X99202666Y-60296619D02*
X99250285Y-60249000D01*
X99345523Y-60201380D01*
X99583619Y-60201380D01*
X99678857Y-60249000D01*
X99726476Y-60296619D01*
X99774095Y-60391857D01*
X99774095Y-60487095D01*
X99726476Y-60629952D01*
X99155047Y-61201380D01*
X99774095Y-61201380D01*
X100155047Y-60296619D02*
X100202666Y-60249000D01*
X100297904Y-60201380D01*
X100536000Y-60201380D01*
X100631238Y-60249000D01*
X100678857Y-60296619D01*
X100726476Y-60391857D01*
X100726476Y-60487095D01*
X100678857Y-60629952D01*
X100107428Y-61201380D01*
X100726476Y-61201380D01*
X93321714Y-62335190D02*
X93274095Y-62287571D01*
X93178857Y-62239952D01*
X93083619Y-62239952D01*
X92988380Y-62287571D01*
X92940761Y-62335190D01*
X92893142Y-62430428D01*
X92893142Y-62525666D01*
X92940761Y-62620904D01*
X92988380Y-62668523D01*
X93083619Y-62716142D01*
X93178857Y-62716142D01*
X93274095Y-62668523D01*
X93321714Y-62620904D01*
X93321714Y-62239952D02*
X93321714Y-62620904D01*
X93369333Y-62668523D01*
X93416952Y-62668523D01*
X93512190Y-62620904D01*
X93559809Y-62525666D01*
X93559809Y-62287571D01*
X93464571Y-62144714D01*
X93321714Y-62049476D01*
X93131238Y-62001857D01*
X92940761Y-62049476D01*
X92797904Y-62144714D01*
X92702666Y-62287571D01*
X92655047Y-62478047D01*
X92702666Y-62668523D01*
X92797904Y-62811380D01*
X92940761Y-62906619D01*
X93131238Y-62954238D01*
X93321714Y-62906619D01*
X93464571Y-62811380D01*
X94416952Y-62144714D02*
X94416952Y-62954238D01*
X94369333Y-63049476D01*
X94321714Y-63097095D01*
X94226476Y-63144714D01*
X94083619Y-63144714D01*
X93988380Y-63097095D01*
X94416952Y-62763761D02*
X94321714Y-62811380D01*
X94131238Y-62811380D01*
X94036000Y-62763761D01*
X93988380Y-62716142D01*
X93940761Y-62620904D01*
X93940761Y-62335190D01*
X93988380Y-62239952D01*
X94036000Y-62192333D01*
X94131238Y-62144714D01*
X94321714Y-62144714D01*
X94416952Y-62192333D01*
X94893142Y-62811380D02*
X94893142Y-62144714D01*
X94893142Y-62335190D02*
X94940761Y-62239952D01*
X94988380Y-62192333D01*
X95083619Y-62144714D01*
X95178857Y-62144714D01*
X95940761Y-62811380D02*
X95940761Y-62287571D01*
X95893142Y-62192333D01*
X95797904Y-62144714D01*
X95607428Y-62144714D01*
X95512190Y-62192333D01*
X95940761Y-62763761D02*
X95845523Y-62811380D01*
X95607428Y-62811380D01*
X95512190Y-62763761D01*
X95464571Y-62668523D01*
X95464571Y-62573285D01*
X95512190Y-62478047D01*
X95607428Y-62430428D01*
X95845523Y-62430428D01*
X95940761Y-62382809D01*
X96416952Y-62144714D02*
X96416952Y-62811380D01*
X96416952Y-62239952D02*
X96464571Y-62192333D01*
X96559809Y-62144714D01*
X96702666Y-62144714D01*
X96797904Y-62192333D01*
X96845523Y-62287571D01*
X96845523Y-62811380D01*
X97750285Y-62811380D02*
X97750285Y-61811380D01*
X97750285Y-62763761D02*
X97655047Y-62811380D01*
X97464571Y-62811380D01*
X97369333Y-62763761D01*
X97321714Y-62716142D01*
X97274095Y-62620904D01*
X97274095Y-62335190D01*
X97321714Y-62239952D01*
X97369333Y-62192333D01*
X97464571Y-62144714D01*
X97655047Y-62144714D01*
X97750285Y-62192333D01*
X98369333Y-62811380D02*
X98274095Y-62763761D01*
X98226476Y-62716142D01*
X98178857Y-62620904D01*
X98178857Y-62335190D01*
X98226476Y-62239952D01*
X98274095Y-62192333D01*
X98369333Y-62144714D01*
X98512190Y-62144714D01*
X98607428Y-62192333D01*
X98655047Y-62239952D01*
X98702666Y-62335190D01*
X98702666Y-62620904D01*
X98655047Y-62716142D01*
X98607428Y-62763761D01*
X98512190Y-62811380D01*
X98369333Y-62811380D01*
X99274095Y-62811380D02*
X99178857Y-62763761D01*
X99131238Y-62668523D01*
X99131238Y-61811380D01*
X100083619Y-62811380D02*
X100083619Y-61811380D01*
X100083619Y-62763761D02*
X99988380Y-62811380D01*
X99797904Y-62811380D01*
X99702666Y-62763761D01*
X99655047Y-62716142D01*
X99607428Y-62620904D01*
X99607428Y-62335190D01*
X99655047Y-62239952D01*
X99702666Y-62192333D01*
X99797904Y-62144714D01*
X99988380Y-62144714D01*
X100083619Y-62192333D01*
X100559809Y-62811380D02*
X100559809Y-62144714D01*
X100559809Y-61811380D02*
X100512190Y-61859000D01*
X100559809Y-61906619D01*
X100607428Y-61859000D01*
X100559809Y-61811380D01*
X100559809Y-61906619D01*
X101464571Y-62811380D02*
X101464571Y-62287571D01*
X101416952Y-62192333D01*
X101321714Y-62144714D01*
X101131238Y-62144714D01*
X101036000Y-62192333D01*
X101464571Y-62763761D02*
X101369333Y-62811380D01*
X101131238Y-62811380D01*
X101036000Y-62763761D01*
X100988380Y-62668523D01*
X100988380Y-62573285D01*
X101036000Y-62478047D01*
X101131238Y-62430428D01*
X101369333Y-62430428D01*
X101464571Y-62382809D01*
X101940761Y-62144714D02*
X101940761Y-62811380D01*
X101940761Y-62239952D02*
X101988380Y-62192333D01*
X102083619Y-62144714D01*
X102226476Y-62144714D01*
X102321714Y-62192333D01*
X102369333Y-62287571D01*
X102369333Y-62811380D01*
X139112952Y-85288380D02*
X139112952Y-84288380D01*
X139446285Y-85002666D01*
X139779619Y-84288380D01*
X139779619Y-85288380D01*
X140112952Y-84288380D02*
X140684380Y-84288380D01*
X140398666Y-85288380D02*
X140398666Y-84288380D01*
X141160571Y-84716952D02*
X141065333Y-84669333D01*
X141017714Y-84621714D01*
X140970095Y-84526476D01*
X140970095Y-84478857D01*
X141017714Y-84383619D01*
X141065333Y-84336000D01*
X141160571Y-84288380D01*
X141351047Y-84288380D01*
X141446285Y-84336000D01*
X141493904Y-84383619D01*
X141541523Y-84478857D01*
X141541523Y-84526476D01*
X141493904Y-84621714D01*
X141446285Y-84669333D01*
X141351047Y-84716952D01*
X141160571Y-84716952D01*
X141065333Y-84764571D01*
X141017714Y-84812190D01*
X140970095Y-84907428D01*
X140970095Y-85097904D01*
X141017714Y-85193142D01*
X141065333Y-85240761D01*
X141160571Y-85288380D01*
X141351047Y-85288380D01*
X141446285Y-85240761D01*
X141493904Y-85193142D01*
X141541523Y-85097904D01*
X141541523Y-84907428D01*
X141493904Y-84812190D01*
X141446285Y-84764571D01*
X141351047Y-84716952D01*
X142112952Y-84716952D02*
X142017714Y-84669333D01*
X141970095Y-84621714D01*
X141922476Y-84526476D01*
X141922476Y-84478857D01*
X141970095Y-84383619D01*
X142017714Y-84336000D01*
X142112952Y-84288380D01*
X142303428Y-84288380D01*
X142398666Y-84336000D01*
X142446285Y-84383619D01*
X142493904Y-84478857D01*
X142493904Y-84526476D01*
X142446285Y-84621714D01*
X142398666Y-84669333D01*
X142303428Y-84716952D01*
X142112952Y-84716952D01*
X142017714Y-84764571D01*
X141970095Y-84812190D01*
X141922476Y-84907428D01*
X141922476Y-85097904D01*
X141970095Y-85193142D01*
X142017714Y-85240761D01*
X142112952Y-85288380D01*
X142303428Y-85288380D01*
X142398666Y-85240761D01*
X142446285Y-85193142D01*
X142493904Y-85097904D01*
X142493904Y-84907428D01*
X142446285Y-84812190D01*
X142398666Y-84764571D01*
X142303428Y-84716952D01*
X143446285Y-85288380D02*
X142874857Y-85288380D01*
X143160571Y-85288380D02*
X143160571Y-84288380D01*
X143065333Y-84431238D01*
X142970095Y-84526476D01*
X142874857Y-84574095D01*
X144303428Y-84288380D02*
X144112952Y-84288380D01*
X144017714Y-84336000D01*
X143970095Y-84383619D01*
X143874857Y-84526476D01*
X143827238Y-84716952D01*
X143827238Y-85097904D01*
X143874857Y-85193142D01*
X143922476Y-85240761D01*
X144017714Y-85288380D01*
X144208190Y-85288380D01*
X144303428Y-85240761D01*
X144351047Y-85193142D01*
X144398666Y-85097904D01*
X144398666Y-84859809D01*
X144351047Y-84764571D01*
X144303428Y-84716952D01*
X144208190Y-84669333D01*
X144017714Y-84669333D01*
X143922476Y-84716952D01*
X143874857Y-84764571D01*
X143827238Y-84859809D01*
X96194952Y-87844380D02*
X96861619Y-87844380D01*
X96433047Y-88844380D01*
X97671142Y-88177714D02*
X97671142Y-88844380D01*
X97433047Y-87796761D02*
X97194952Y-88511047D01*
X97814000Y-88511047D01*
X98671142Y-88844380D02*
X98194952Y-88844380D01*
X98194952Y-87844380D01*
X98956857Y-88796761D02*
X99099714Y-88844380D01*
X99337809Y-88844380D01*
X99433047Y-88796761D01*
X99480666Y-88749142D01*
X99528285Y-88653904D01*
X99528285Y-88558666D01*
X99480666Y-88463428D01*
X99433047Y-88415809D01*
X99337809Y-88368190D01*
X99147333Y-88320571D01*
X99052095Y-88272952D01*
X99004476Y-88225333D01*
X98956857Y-88130095D01*
X98956857Y-88034857D01*
X99004476Y-87939619D01*
X99052095Y-87892000D01*
X99147333Y-87844380D01*
X99385428Y-87844380D01*
X99528285Y-87892000D01*
X100480666Y-88844380D02*
X99909238Y-88844380D01*
X100194952Y-88844380D02*
X100194952Y-87844380D01*
X100099714Y-87987238D01*
X100004476Y-88082476D01*
X99909238Y-88130095D01*
X101337809Y-88177714D02*
X101337809Y-88844380D01*
X101099714Y-87796761D02*
X100861619Y-88511047D01*
X101480666Y-88511047D01*
X102337809Y-87844380D02*
X101861619Y-87844380D01*
X101814000Y-88320571D01*
X101861619Y-88272952D01*
X101956857Y-88225333D01*
X102194952Y-88225333D01*
X102290190Y-88272952D01*
X102337809Y-88320571D01*
X102385428Y-88415809D01*
X102385428Y-88653904D01*
X102337809Y-88749142D01*
X102290190Y-88796761D01*
X102194952Y-88844380D01*
X101956857Y-88844380D01*
X101861619Y-88796761D01*
X101814000Y-88749142D01*
D11*
%TO.C,U1*%
X88830000Y-91286000D02*
X109270000Y-91286000D01*
X88770000Y-83496000D02*
X88770000Y-93776000D01*
X109330000Y-93776000D02*
X109330000Y-83496000D01*
X88830000Y-85986000D02*
X88830000Y-87636000D01*
X109270000Y-91286000D02*
X109270000Y-85986000D01*
X88830000Y-89636000D02*
X88830000Y-91286000D01*
X88770000Y-93776000D02*
X109330000Y-93776000D01*
X109270000Y-85986000D02*
X88830000Y-85986000D01*
X109330000Y-83496000D02*
X88770000Y-83496000D01*
X88830000Y-89636000D02*
G75*
G03*
X88830000Y-87636000I0J1000000D01*
G01*
%TO.C,U4*%
X123444000Y-59934000D02*
X161544000Y-59934000D01*
X161544000Y-72634000D02*
X161544000Y-75304000D01*
X125984000Y-72634000D02*
X161544000Y-72634000D01*
X120774000Y-75304000D02*
X123444000Y-75304000D01*
X123444000Y-72634000D02*
X123444000Y-75304000D01*
X125984000Y-72634000D02*
X123444000Y-72634000D01*
X120774000Y-57264000D02*
X120774000Y-75304000D01*
X164214000Y-57264000D02*
X120774000Y-57264000D01*
X125984000Y-72634000D02*
X125984000Y-75304000D01*
X164214000Y-75304000D02*
X164214000Y-57264000D01*
X161544000Y-59934000D02*
X161544000Y-57264000D01*
X125984000Y-75304000D02*
X164214000Y-75304000D01*
X123444000Y-59934000D02*
X123444000Y-57264000D01*
%TO.C,H2*%
X106790000Y-91515000D02*
X106790000Y-81235000D01*
X86290000Y-87375000D02*
X86290000Y-89025000D01*
X86290000Y-89025000D02*
X106730000Y-89025000D01*
X86290000Y-83725000D02*
X86290000Y-85375000D01*
X106730000Y-89025000D02*
X106730000Y-83725000D01*
X106790000Y-81235000D02*
X86230000Y-81235000D01*
X86230000Y-91515000D02*
X106790000Y-91515000D01*
X86230000Y-81235000D02*
X86230000Y-91515000D01*
X106730000Y-83725000D02*
X86290000Y-83725000D01*
X86290000Y-87375000D02*
G75*
G03*
X86290000Y-85375000I0J1000000D01*
G01*
%TO.C,H1*%
X105996000Y-34105000D02*
X70196000Y-34105000D01*
X70256000Y-49515000D02*
X105936000Y-49515000D01*
X105936000Y-36595000D02*
X70256000Y-36595000D01*
X105996000Y-52005000D02*
X105996000Y-34105000D01*
X70256000Y-36595000D02*
X70256000Y-42055000D01*
X70196000Y-52005000D02*
X105996000Y-52005000D01*
X70196000Y-34105000D02*
X70196000Y-52005000D01*
X70256000Y-44055000D02*
X70256000Y-49515000D01*
X105936000Y-49515000D02*
X105936000Y-36595000D01*
X70256000Y-44055000D02*
G75*
G03*
X70256000Y-42055000I0J1000000D01*
G01*
%TO.C,U2*%
X72816000Y-39504000D02*
X72816000Y-44964000D01*
X72756000Y-54914000D02*
X108556000Y-54914000D01*
X72756000Y-37014000D02*
X72756000Y-54914000D01*
X72816000Y-52424000D02*
X108496000Y-52424000D01*
X72816000Y-46964000D02*
X72816000Y-52424000D01*
X108496000Y-52424000D02*
X108496000Y-39504000D01*
X108496000Y-39504000D02*
X72816000Y-39504000D01*
X108556000Y-37014000D02*
X72756000Y-37014000D01*
X108556000Y-54914000D02*
X108556000Y-37014000D01*
X72816000Y-46964000D02*
G75*
G03*
X72816000Y-44964000I0J1000000D01*
G01*
%TO.C,U3*%
X166739000Y-93781000D02*
X166739000Y-75881000D01*
X166679000Y-91291000D02*
X166679000Y-85831000D01*
X166679000Y-83831000D02*
X166679000Y-78371000D01*
X115759000Y-91291000D02*
X166679000Y-91291000D01*
X115699000Y-75881000D02*
X115699000Y-93781000D01*
X166679000Y-78371000D02*
X115759000Y-78371000D01*
X166739000Y-75881000D02*
X115699000Y-75881000D01*
X115759000Y-78371000D02*
X115759000Y-91291000D01*
X115699000Y-93781000D02*
X166739000Y-93781000D01*
X166679000Y-83831000D02*
G75*
G03*
X166679000Y-85831000I0J-1000000D01*
G01*
%TD*%
M02*
